<?xml version="1.0" encoding="UTF-8" standalone="no"?>
<!DOCTYPE svg PUBLIC "-//W3C//DTD SVG 20010904//EN"
              "http://www.w3.org/TR/2001/REC-SVG-20010904/DTD/svg10.dtd">

<svg xmlns="http://www.w3.org/2000/svg"
     width="135.45mm" height="135.45mm"
     viewBox="0 0 512 512">
  <path id="Selection"
        fill="none" stroke="black" stroke-width="1"
        d="M 160.00,1.00
           C 160.00,1.00 152.58,38.00 152.58,38.00
             152.58,38.00 145.00,76.00 145.00,76.00
             145.00,76.00 183.00,76.00 183.00,76.00
             181.58,65.22 183.11,57.14 187.00,47.00
             187.00,47.00 181.00,47.00 181.00,47.00
             181.00,47.00 189.00,6.00 189.00,6.00
             189.00,6.00 160.00,1.00 160.00,1.00 Z
           M 323.00,6.00
           C 323.00,6.00 331.00,47.00 331.00,47.00
             331.00,47.00 325.00,47.00 325.00,47.00
             328.26,61.42 329.00,60.48 329.00,76.00
             329.00,76.00 366.00,76.00 366.00,76.00
             366.00,76.00 352.00,1.00 352.00,1.00
             352.00,1.00 323.00,6.00 323.00,6.00 Z
           M 255.00,17.14
           C 249.92,19.06 245.22,23.04 241.00,26.46
             228.39,36.69 212.06,53.28 213.09,71.00
             213.57,79.25 216.37,86.40 223.00,91.61
             232.82,99.32 256.45,97.02 269.00,97.00
             274.01,96.99 277.22,96.99 282.00,95.07
             285.02,93.86 288.36,91.94 290.70,89.67
             295.53,85.00 297.82,78.62 297.99,72.00
             298.45,53.62 286.36,39.84 273.00,28.59
             268.58,24.86 260.67,17.53 255.00,17.14 Z
           M 117.00,90.00
           C 117.00,90.00 97.00,110.00 97.00,110.00
             97.00,110.00 123.00,137.00 123.00,137.00
             123.00,137.00 137.00,149.83 137.00,149.83
             137.00,149.83 158.00,153.27 158.00,153.27
             158.00,153.27 203.00,159.00 203.00,159.00
             203.00,159.00 202.00,130.00 202.00,130.00
             202.00,130.00 168.00,125.13 168.00,125.13
             168.00,125.13 151.00,121.99 151.00,121.99
             151.00,121.99 140.00,112.00 140.00,112.00
             140.00,112.00 117.00,90.00 117.00,90.00 Z
           M 393.00,90.00
           C 393.00,90.00 372.00,111.00 372.00,111.00
             372.00,111.00 360.00,122.07 360.00,122.07
             360.00,122.07 344.00,125.13 344.00,125.13
             344.00,125.13 309.00,130.00 309.00,130.00
             309.00,130.00 309.96,139.00 309.96,139.00
             309.96,139.00 309.08,149.00 309.08,149.00
             309.08,149.00 309.08,159.00 309.08,159.00
             309.08,159.00 355.00,153.13 355.00,153.13
             360.08,152.42 372.10,151.47 376.00,149.15
             380.14,146.67 398.73,126.27 404.00,121.00
             406.21,118.79 412.80,113.07 412.80,110.00
             412.80,107.51 409.63,104.67 408.00,103.00
             403.13,98.03 399.06,93.54 393.00,90.00 Z
           M 228.70,128.01
           C 224.32,133.32 225.22,140.65 225.83,147.00
             225.83,147.00 227.91,172.00 227.91,172.00
             227.91,172.00 229.68,194.00 229.68,194.00
             229.68,194.00 228.17,214.00 228.17,214.00
             228.17,214.00 225.18,250.00 225.18,250.00
             224.02,266.45 237.31,282.58 254.00,282.99
             274.59,283.48 286.22,268.65 286.00,249.00
             286.00,249.00 285.09,239.00 285.09,239.00
             285.09,239.00 282.91,210.00 282.91,210.00
             282.91,210.00 282.00,200.00 282.00,200.00
             282.00,200.00 285.09,153.00 285.09,153.00
             285.09,153.00 286.00,143.00 286.00,143.00
             286.04,139.09 286.25,130.41 282.57,128.01
             280.47,126.68 273.92,127.96 271.00,128.01
             271.00,128.01 243.00,128.01 243.00,128.01
             238.72,127.99 232.19,126.61 228.70,128.01 Z
           M 63.00,247.00
           C 63.00,247.00 80.00,271.00 80.00,271.00
             80.00,271.00 127.00,236.63 127.00,236.63
             127.00,236.63 149.00,220.84 149.00,220.84
             149.00,220.84 162.00,218.83 162.00,218.83
             162.00,218.83 188.00,216.08 188.00,216.08
             188.00,216.08 203.40,213.40 203.40,213.40
             203.40,213.40 205.04,205.00 205.04,205.00
             205.04,205.00 205.04,185.00 205.04,185.00
             205.04,185.00 159.00,189.72 159.00,189.72
             159.00,189.72 138.00,192.39 138.00,192.39
             138.00,192.39 113.00,210.13 113.00,210.13
             113.00,210.13 63.00,247.00 63.00,247.00 Z
           M 306.00,185.00
           C 306.00,185.00 306.00,202.00 306.00,202.00
             306.00,202.00 307.00,214.00 307.00,214.00
             307.00,214.00 343.00,217.93 343.00,217.93
             343.00,217.93 363.00,220.81 363.00,220.81
             363.00,220.81 385.00,236.63 385.00,236.63
             385.00,236.63 432.00,271.00 432.00,271.00
             432.00,271.00 449.00,247.00 449.00,247.00
             449.00,247.00 399.00,210.13 399.00,210.13
             399.00,210.13 374.00,192.34 374.00,192.34
             374.00,192.34 346.00,188.92 346.00,188.92
             346.00,188.92 306.00,185.00 306.00,185.00 Z
           M 329.00,257.00
           C 329.00,257.00 338.11,273.00 338.11,273.00
             343.82,285.14 346.02,295.68 346.00,309.00
             345.97,326.17 340.14,332.05 340.05,343.00
             340.05,343.00 340.05,360.00 340.05,360.00
             340.05,360.00 341.00,372.00 341.00,372.00
             341.00,372.00 343.00,435.00 343.00,435.00
             343.00,435.00 344.00,450.00 344.00,450.00
             344.04,454.07 343.51,466.91 344.74,469.91
             346.07,473.17 351.28,477.09 354.00,479.42
             354.00,479.42 374.00,496.85 374.00,496.85
             374.00,496.85 386.00,507.11 386.00,507.11
             387.70,508.47 389.58,510.29 391.96,509.66
             394.35,509.04 404.81,496.60 406.77,494.00
             408.24,492.05 409.33,490.50 408.18,488.04
             407.24,486.06 402.81,482.56 401.00,480.95
             401.00,480.95 382.00,464.42 382.00,464.42
             376.55,459.74 373.14,458.51 373.00,451.00
             373.00,451.00 371.96,432.00 371.96,432.00
             371.96,432.00 371.96,417.00 371.96,417.00
             371.96,417.00 371.00,405.00 371.00,405.00
             371.00,405.00 369.00,342.00 369.00,342.00
             369.00,342.00 368.04,330.00 368.04,330.00
             368.04,330.00 368.04,315.00 368.04,315.00
             368.04,315.00 367.04,303.00 367.04,303.00
             367.04,303.00 367.04,288.00 367.04,288.00
             366.99,284.54 367.17,279.29 365.07,276.39
             363.32,273.98 357.79,271.68 355.00,270.14
             349.22,266.93 334.51,258.58 329.00,257.00 Z
           M 100.00,489.00
           C 103.34,494.73 108.40,500.04 112.85,505.00
             114.35,506.66 116.60,509.78 119.04,509.81
             122.18,509.85 129.47,502.47 132.00,500.28
             132.00,500.28 154.00,481.27 154.00,481.27
             161.95,474.45 165.98,473.60 166.11,463.00
             166.11,463.00 166.11,351.00 166.11,351.00
             166.11,351.00 166.11,322.00 166.11,322.00
             165.98,308.90 163.49,309.73 166.11,294.00
             169.21,279.41 173.31,273.50 180.00,261.00
             172.88,263.08 158.22,272.61 151.00,276.72
             148.28,278.27 140.27,282.49 138.60,284.53
             136.66,286.89 137.01,290.14 137.00,293.00
             137.00,293.00 137.00,449.00 137.00,449.00
             136.98,459.54 132.82,460.40 125.00,467.13
             125.00,467.13 100.00,489.00 100.00,489.00 Z
           M 206.00,277.00
           C 198.97,289.58 195.83,293.93 196.00,309.00
             196.15,321.75 201.25,330.00 206.75,341.00
             206.75,341.00 222.75,374.00 222.75,374.00
             229.75,387.99 235.37,406.53 254.00,406.99
             276.91,407.54 281.04,388.97 289.26,372.00
             289.26,372.00 303.25,344.00 303.25,344.00
             307.30,335.90 311.98,327.87 314.10,319.00
             317.56,304.55 313.94,288.68 305.00,277.00
             298.70,282.51 296.18,291.57 281.00,300.13
             253.91,315.40 222.36,303.72 208.00,277.00
             208.00,277.00 206.00,277.00 206.00,277.00 Z" />
</svg>
