<?xml version="1.0" encoding="UTF-8" standalone="no"?>
<!DOCTYPE svg PUBLIC "-//W3C//DTD SVG 20010904//EN"
              "http://www.w3.org/TR/2001/REC-SVG-20010904/DTD/svg10.dtd">

<svg xmlns="http://www.w3.org/2000/svg"
     width="135.486mm" height="135.486mm"
     viewBox="0 0 512 512">
  <path id="Selection"
        fill="none" stroke="black" stroke-width="1"
        d="M 138.00,4.00
           C 138.00,4.00 138.00,44.00 138.00,44.00
             138.00,46.33 137.62,50.38 139.60,51.98
             141.22,53.30 150.43,54.20 153.00,54.58
             153.00,54.58 188.00,59.58 188.00,59.58
             192.61,60.26 200.64,60.31 202.94,65.06
             204.79,68.89 200.52,75.46 198.75,79.00
             194.47,87.57 186.13,100.71 186.00,110.00
             185.76,128.13 185.55,133.30 196.00,149.00
             203.06,144.54 209.41,138.92 217.00,135.32
             240.84,123.99 266.69,123.75 291.00,133.60
             303.23,138.56 306.20,143.30 316.00,149.00
             326.30,133.49 326.09,128.75 326.00,111.00
             325.98,107.33 326.06,105.50 324.65,102.00
             324.65,102.00 312.25,77.00 312.25,77.00
             310.85,74.21 307.79,69.16 308.70,66.06
             310.31,60.59 322.15,60.49 327.00,59.95
             327.00,59.95 385.00,53.00 385.00,53.00
             385.00,53.00 385.00,4.00 385.00,4.00
             385.00,4.00 362.00,4.00 362.00,4.00
             362.00,4.00 362.00,22.00 362.00,22.00
             361.99,25.29 362.38,29.02 359.69,31.44
             356.91,33.94 347.92,34.51 344.00,34.95
             344.00,34.95 308.00,39.42 308.00,39.42
             302.46,40.19 287.78,42.39 283.00,41.82
             275.53,40.92 267.39,36.08 256.00,36.08
             244.58,36.08 235.02,41.42 228.00,41.90
             228.00,41.90 195.00,37.73 195.00,37.73
             195.00,37.73 172.00,34.42 172.00,34.42
             168.55,33.90 164.93,33.79 162.60,30.77
             160.71,28.33 161.01,24.92 161.00,22.00
             161.00,22.00 161.00,4.00 161.00,4.00
             161.00,4.00 138.00,4.00 138.00,4.00 Z
           M 55.00,85.00
           C 55.00,85.00 97.01,184.00 97.01,184.00
             97.01,184.00 105.58,204.00 105.58,204.00
             105.58,204.00 110.49,212.98 110.49,212.98
             110.49,212.98 118.00,214.00 118.00,214.00
             118.00,214.00 167.00,214.00 167.00,214.00
             167.00,214.00 170.00,191.00 170.00,191.00
             170.00,191.00 134.00,191.00 134.00,191.00
             134.00,191.00 126.13,189.98 126.13,189.98
             126.13,189.98 120.85,182.00 120.85,182.00
             120.85,182.00 112.85,163.00 112.85,163.00
             112.85,163.00 86.42,101.00 86.42,101.00
             86.42,101.00 79.58,85.00 79.58,85.00
             79.58,85.00 75.51,78.13 75.51,78.13
             75.51,78.13 69.00,79.16 69.00,79.16
             69.00,79.16 55.00,85.00 55.00,85.00 Z
           M 342.00,191.00
           C 342.00,191.00 345.00,214.00 345.00,214.00
             345.00,214.00 394.00,214.00 394.00,214.00
             394.00,214.00 401.51,212.98 401.51,212.98
             401.51,212.98 406.42,204.00 406.42,204.00
             406.42,204.00 415.00,184.00 415.00,184.00
             415.00,184.00 457.00,85.00 457.00,85.00
             457.00,85.00 443.00,79.16 443.00,79.16
             443.00,79.16 436.49,78.13 436.49,78.13
             436.49,78.13 432.85,84.00 432.85,84.00
             432.85,84.00 426.00,100.00 426.00,100.00
             426.00,100.00 399.60,162.00 399.60,162.00
             399.60,162.00 391.58,181.00 391.58,181.00
             391.58,181.00 385.87,189.98 385.87,189.98
             385.87,189.98 378.00,191.00 378.00,191.00
             378.00,191.00 342.00,191.00 342.00,191.00 Z
           M 212.00,274.00
           C 212.00,274.00 226.00,269.34 226.00,269.34
             235.86,266.20 247.67,264.95 258.00,265.00
             267.55,265.05 279.89,267.28 289.00,270.19
             289.00,270.19 300.00,274.00 300.00,274.00
             300.00,274.00 305.27,237.00 305.27,237.00
             308.06,217.68 310.83,204.80 299.30,187.00
             283.09,161.96 247.52,156.32 224.00,174.53
             215.09,181.42 209.67,190.39 206.46,201.00
             202.24,214.10 204.64,222.93 206.46,236.00
             206.46,236.00 212.00,274.00 212.00,274.00 Z
           M 6.00,301.00
           C 6.00,301.00 14.00,322.00 14.00,322.00
             14.00,322.00 103.00,288.58 103.00,288.58
             103.00,288.58 129.00,278.81 129.00,278.81
             129.00,278.81 144.00,274.20 144.00,274.20
             144.00,274.20 176.00,286.00 176.00,286.00
             176.00,286.00 173.58,269.00 173.58,269.00
             173.58,269.00 171.83,261.41 171.83,261.41
             171.83,261.41 165.00,257.40 165.00,257.40
             165.00,257.40 144.00,249.65 144.00,249.65
             144.00,249.65 130.00,254.19 130.00,254.19
             130.00,254.19 103.00,264.32 103.00,264.32
             103.00,264.32 6.00,301.00 6.00,301.00 Z
           M 336.00,286.00
           C 336.00,286.00 367.00,274.37 367.00,274.37
             367.00,274.37 380.00,277.58 380.00,277.58
             380.00,277.58 405.00,287.05 405.00,287.05
             405.00,287.05 498.00,322.00 498.00,322.00
             498.00,322.00 506.00,301.00 506.00,301.00
             506.00,301.00 468.00,286.58 468.00,286.58
             468.00,286.58 409.00,264.32 409.00,264.32
             409.00,264.32 382.00,254.19 382.00,254.19
             382.00,254.19 368.00,249.65 368.00,249.65
             368.00,249.65 347.00,257.40 347.00,257.40
             347.00,257.40 340.17,261.41 340.17,261.41
             340.17,261.41 338.42,269.00 338.42,269.00
             338.42,269.00 336.00,286.00 336.00,286.00 Z
           M 251.00,302.42
           C 223.02,306.65 201.58,318.51 190.45,346.00
             187.40,353.54 185.10,362.85 185.00,371.00
             184.87,382.34 184.25,398.23 186.45,409.00
             191.86,435.48 209.57,454.04 235.00,462.33
             241.60,464.48 253.14,466.54 260.00,465.72
             288.05,462.36 310.56,449.13 321.55,422.00
             324.60,414.46 326.90,405.15 327.00,397.00
             327.13,385.33 327.81,369.06 325.34,358.00
             319.23,330.73 298.53,309.59 271.00,304.00
             264.41,302.67 257.71,301.61 251.00,302.42 Z
           M 152.00,339.00
           C 152.00,339.00 122.00,350.58 122.00,350.58
             122.00,350.58 109.60,355.84 109.60,355.84
             109.60,355.84 108.00,364.00 108.00,364.00
             108.00,364.00 108.00,508.00 108.00,508.00
             108.00,508.00 131.00,508.00 131.00,508.00
             131.00,508.00 131.00,381.00 131.00,381.00
             131.00,379.03 130.89,375.85 131.60,374.05
             133.91,368.22 143.31,368.10 146.42,365.16
             148.21,363.47 148.53,360.32 148.87,358.00
             149.51,353.59 152.58,342.19 152.00,339.00 Z
           M 359.00,339.00
           C 359.00,339.00 362.73,355.00 362.73,355.00
             362.73,355.00 364.95,364.35 364.95,364.35
             364.95,364.35 379.98,373.13 379.98,373.13
             379.98,373.13 381.00,381.00 381.00,381.00
             381.00,381.00 381.00,508.00 381.00,508.00
             381.00,508.00 404.00,508.00 404.00,508.00
             404.00,508.00 404.00,364.00 404.00,364.00
             404.00,364.00 402.40,355.84 402.40,355.84
             402.40,355.84 390.00,350.58 390.00,350.58
             390.00,350.58 359.00,339.00 359.00,339.00 Z" />
</svg>
