<?xml version="1.0" encoding="UTF-8" standalone="no"?>
<!DOCTYPE svg PUBLIC "-//W3C//DTD SVG 20010904//EN"
              "http://www.w3.org/TR/2001/REC-SVG-20010904/DTD/svg10.dtd">

<svg xmlns="http://www.w3.org/2000/svg"
     width="135.45mm" height="135.45mm"
     viewBox="0 0 512 512">
  <path id="Selection"
        fill="none" stroke="black" stroke-width="1"
        d="M 193.00,17.00
           C 193.00,17.00 199.00,30.00 199.00,30.00
             199.00,30.00 213.94,14.00 213.94,14.00
             213.94,14.00 213.94,9.00 213.94,9.00
             213.94,9.00 193.00,17.00 193.00,17.00 Z
           M 298.06,10.00
           C 298.06,10.00 298.06,15.00 298.06,15.00
             298.06,15.00 311.00,31.00 311.00,31.00
             311.00,31.00 313.00,31.00 313.00,31.00
             313.00,31.00 319.00,18.00 319.00,18.00
             319.00,18.00 298.06,10.00 298.06,10.00 Z
           M 108.00,22.00
           C 108.00,22.00 100.00,43.00 100.00,43.00
             100.00,43.00 122.00,52.69 122.00,52.69
             125.62,54.35 130.01,55.69 132.40,59.10
             134.27,61.77 133.99,64.91 134.00,68.00
             134.00,68.00 134.00,116.00 134.00,116.00
             134.00,120.54 132.44,129.75 137.13,132.19
             140.45,133.91 143.76,132.42 147.00,131.33
             147.00,131.33 167.00,124.00 167.00,124.00
             160.29,117.87 157.07,119.37 157.00,109.00
             157.00,109.00 157.00,52.00 157.00,52.00
             156.99,49.24 157.35,45.84 155.40,43.63
             153.41,41.38 145.15,38.25 142.00,36.75
             142.00,36.75 108.00,22.00 108.00,22.00 Z
           M 344.00,123.00
           C 347.22,124.98 362.99,130.81 367.00,131.96
             369.77,132.75 373.11,133.35 375.43,131.11
             377.38,129.23 377.00,125.52 377.00,123.00
             377.00,123.00 377.00,68.00 377.00,68.00
             377.01,64.98 376.73,61.72 378.60,59.13
             380.55,56.43 385.01,54.68 388.00,53.25
             388.00,53.25 411.00,43.00 411.00,43.00
             411.00,43.00 403.00,22.00 403.00,22.00
             403.00,22.00 371.00,36.14 371.00,36.14
             368.21,37.38 357.17,42.01 355.60,43.70
             353.65,45.78 354.01,49.33 354.00,52.00
             354.00,52.00 354.00,109.00 354.00,109.00
             353.94,117.50 351.48,119.33 344.00,123.00 Z
           M 251.00,37.46
           C 233.98,41.25 235.03,46.95 226.47,58.00
             219.58,66.90 211.94,66.36 207.47,78.00
             203.29,88.87 208.88,101.61 220.00,105.45
             230.65,109.13 236.55,100.59 243.00,100.51
             243.00,100.51 254.00,101.99 254.00,101.99
             254.00,101.99 267.00,101.31 267.00,101.31
             271.02,101.91 275.72,105.91 282.00,106.36
             292.83,107.14 300.97,96.99 301.81,87.00
             302.90,74.08 294.27,69.74 287.10,61.99
             282.39,56.89 281.60,52.47 277.10,47.17
             270.69,39.63 260.68,36.13 251.00,37.46 Z
           M 31.00,135.00
           C 31.00,135.00 31.00,158.10 31.00,158.10
             31.00,158.10 60.00,158.10 60.00,158.10
             60.00,158.10 72.00,158.10 72.00,158.10
             72.00,158.10 93.00,151.00 93.00,151.00
             90.19,147.07 81.32,137.19 77.00,135.60
             75.23,134.95 72.88,135.01 71.00,135.00
             71.00,135.00 31.00,135.00 31.00,135.00 Z
           M 419.00,151.00
           C 419.00,151.00 441.00,158.16 441.00,158.16
             441.00,158.16 481.00,158.16 481.00,158.16
             481.00,158.16 481.00,135.00 481.00,135.00
             481.00,135.00 440.00,135.00 440.00,135.00
             437.83,135.04 436.00,135.02 434.00,136.02
             430.07,137.99 421.70,147.23 419.00,151.00 Z
           M 222.00,144.00
           C 222.00,144.00 222.00,157.00 222.00,157.00
             234.89,154.06 241.59,150.34 256.00,150.34
             270.41,150.34 277.11,154.06 290.00,157.00
             290.00,157.00 290.00,143.00 290.00,143.00
             278.92,145.69 272.24,142.12 262.00,140.07
             262.00,140.07 250.00,139.38 250.00,139.38
             245.76,139.22 242.97,141.03 239.00,142.08
             234.12,143.36 227.08,143.98 222.00,144.00 Z
           M 184.00,158.00
           C 184.00,158.00 120.00,180.95 120.00,180.95
             120.00,180.95 83.00,194.31 83.00,194.31
             73.78,197.52 65.97,199.13 57.00,203.89
             49.43,207.91 39.10,215.07 33.01,221.04
             17.13,236.61 4.27,263.51 4.00,286.00
             4.00,286.00 4.00,378.00 4.00,378.00
             4.05,409.25 35.83,429.03 64.00,416.10
             76.97,410.15 87.60,393.31 96.35,382.00
             96.35,382.00 130.42,338.00 130.42,338.00
             133.72,333.77 146.92,317.63 148.27,314.00
             149.35,311.07 148.99,303.46 149.00,300.00
             149.03,282.73 153.08,256.48 158.34,240.00
             161.51,230.07 166.30,216.96 171.43,208.00
             171.43,208.00 183.49,188.00 183.49,188.00
             184.09,185.92 184.00,183.18 184.00,181.00
             184.00,181.00 184.00,158.00 184.00,158.00 Z
           M 328.00,158.00
           C 328.00,158.00 328.00,181.00 328.00,181.00
             328.00,183.18 327.91,185.92 328.51,188.00
             328.51,188.00 340.57,208.00 340.57,208.00
             346.01,217.51 350.31,229.54 353.66,240.00
             359.95,259.71 362.97,285.33 363.21,306.00
             363.00,308.02 362.92,311.11 363.21,313.00
             364.57,317.26 373.73,327.91 376.88,332.00
             376.88,332.00 415.65,382.00 415.65,382.00
             424.40,393.31 435.03,410.15 448.00,416.10
             476.20,429.05 507.95,409.36 508.00,378.00
             508.00,378.00 508.00,311.00 508.00,311.00
             508.00,290.41 509.43,275.86 501.55,256.00
             492.25,232.56 477.34,215.74 455.00,203.89
             446.03,199.13 438.22,197.52 429.00,194.31
             429.00,194.31 395.00,181.95 395.00,181.95
             395.00,181.95 349.00,165.31 349.00,165.31
             349.00,165.31 328.00,158.00 328.00,158.00 Z
           M 199.00,237.00
           C 199.00,237.00 313.00,237.00 313.00,237.00
             308.43,226.39 302.81,215.51 294.91,207.00
             290.05,201.76 285.24,197.57 279.00,194.04
             271.93,190.05 265.10,188.04 257.00,188.00
             227.10,187.87 209.76,212.03 199.00,237.00 Z
           M 186.00,306.00
           C 186.00,306.00 326.00,306.00 326.00,306.00
             326.00,306.00 324.42,283.00 324.42,283.00
             324.42,283.00 322.26,274.99 322.26,274.99
             322.26,274.99 315.00,274.00 315.00,274.00
             315.00,274.00 197.00,274.00 197.00,274.00
             197.00,274.00 189.74,274.99 189.74,274.99
             189.74,274.99 187.58,283.00 187.58,283.00
             187.58,283.00 186.00,306.00 186.00,306.00 Z
           M 194.00,343.00
           C 195.24,349.83 198.67,355.86 201.75,362.00
             209.83,378.12 223.52,396.06 236.04,409.00
             236.04,409.00 249.00,420.71 249.00,420.71
             250.72,422.17 253.65,424.83 256.00,424.83
             258.36,424.83 261.27,422.18 263.00,420.73
             267.46,416.99 271.93,413.20 275.96,409.00
             288.81,395.62 301.82,378.57 310.24,362.00
             313.34,355.90 316.77,349.79 318.00,343.00
             318.00,343.00 194.00,343.00 194.00,343.00 Z
           M 159.00,361.00
           C 159.00,361.00 158.00,392.00 158.00,392.00
             158.00,392.00 158.00,451.00 158.00,451.00
             158.00,451.00 156.40,459.96 156.40,459.96
             156.40,459.96 145.00,468.68 145.00,468.68
             145.00,468.68 122.00,483.00 122.00,483.00
             122.00,483.00 133.00,503.00 133.00,503.00
             133.00,503.00 167.00,481.95 167.00,481.95
             180.85,473.26 180.98,474.38 181.00,465.00
             181.00,465.00 181.00,407.00 181.00,407.00
             181.00,404.82 181.09,402.08 180.49,400.00
             180.49,400.00 166.89,376.00 166.89,376.00
             164.25,370.99 162.79,365.29 159.00,361.00 Z
           M 352.00,361.00
           C 352.00,361.00 339.57,386.00 339.57,386.00
             334.39,395.04 331.02,396.23 331.00,407.00
             331.00,407.00 331.00,465.00 331.00,465.00
             331.02,474.83 331.59,473.64 345.00,482.05
             345.00,482.05 379.00,503.00 379.00,503.00
             379.00,503.00 390.00,483.00 390.00,483.00
             390.00,483.00 366.00,468.19 366.00,468.19
             362.99,466.32 356.66,462.86 355.02,459.90
             353.80,457.69 354.00,454.48 354.00,452.00
             354.00,452.00 354.00,390.00 354.00,390.00
             354.00,382.33 355.00,367.50 352.00,361.00 Z" />
</svg>
