<?xml version="1.0" encoding="UTF-8" standalone="no"?>
<!DOCTYPE svg PUBLIC "-//W3C//DTD SVG 20010904//EN"
              "http://www.w3.org/TR/2001/REC-SVG-20010904/DTD/svg10.dtd">

<svg xmlns="http://www.w3.org/2000/svg"
     width="135.45mm" height="135.45mm"
     viewBox="0 0 512 512">
  <path id="Selection"
        fill="none" stroke="black" stroke-width="1"
        d="M 188.00,15.00
           C 188.00,15.00 199.00,36.00 199.00,36.00
             199.00,36.00 211.01,22.01 211.01,22.01
             211.01,22.01 218.59,13.91 218.59,13.91
             218.59,13.91 216.00,5.00 216.00,5.00
             216.00,5.00 188.00,15.00 188.00,15.00 Z
           M 296.00,6.00
           C 296.00,6.00 293.41,14.96 293.41,14.96
             293.41,14.96 300.83,23.04 300.83,23.04
             300.83,23.04 311.00,38.00 311.00,38.00
             316.74,32.14 320.77,23.50 324.00,16.00
             324.00,16.00 296.00,6.00 296.00,6.00 Z
           M 106.00,18.00
           C 106.00,18.00 95.00,44.00 95.00,44.00
             95.00,44.00 119.00,55.14 119.00,55.14
             122.01,56.48 128.23,58.64 129.98,61.39
             131.22,63.34 131.00,66.73 131.00,69.00
             131.00,69.00 131.00,117.00 131.00,117.00
             131.00,122.20 129.38,131.22 134.13,134.52
             141.29,139.48 152.70,132.91 160.00,130.31
             164.35,128.75 171.44,126.54 175.00,124.00
             161.06,114.92 160.02,117.71 160.00,107.00
             160.00,107.00 160.00,49.00 160.00,49.00
             160.00,46.38 160.41,42.98 158.43,40.97
             157.12,39.64 145.49,34.51 143.00,33.42
             134.61,29.77 113.58,18.80 106.00,18.00 Z
           M 337.00,125.00
           C 337.00,125.00 361.00,133.42 361.00,133.42
             365.06,134.94 369.60,137.39 374.00,135.99
             380.20,134.02 379.99,130.55 380.00,125.00
             380.00,125.00 380.00,69.00 380.00,69.00
             380.00,66.74 379.78,63.32 381.02,61.39
             382.57,59.00 388.29,57.03 391.00,55.75
             391.00,55.75 416.00,44.00 416.00,44.00
             416.00,44.00 405.00,18.00 405.00,18.00
             397.40,19.37 376.29,29.90 368.00,33.69
             368.00,33.69 352.57,41.07 352.57,41.07
             350.58,42.95 351.00,46.47 351.00,49.00
             351.00,49.00 351.00,107.00 351.00,107.00
             351.00,109.38 351.21,112.70 349.98,114.79
             347.47,119.04 340.37,119.74 337.00,125.00 Z
           M 249.00,34.47
           C 230.98,38.75 228.50,50.46 222.79,56.98
             217.35,63.21 213.19,63.27 208.53,69.04
             199.98,79.62 201.20,96.55 212.09,105.07
             218.11,109.78 224.80,110.99 232.00,108.45
             232.00,108.45 242.00,104.27 242.00,104.27
             244.99,103.76 250.63,105.41 254.00,105.68
             254.00,105.68 266.00,104.67 266.00,104.67
             271.38,105.17 276.93,111.14 286.00,109.53
             298.58,107.30 305.49,96.24 304.96,84.00
             304.31,69.16 295.31,66.64 289.33,59.91
             289.33,59.91 279.67,45.01 279.67,45.01
             271.56,35.43 261.01,32.79 249.00,34.47 Z
           M 28.00,131.00
           C 28.00,131.00 28.00,161.00 28.00,161.00
             28.00,161.00 58.00,161.00 58.00,161.00
             58.00,161.00 71.00,162.19 71.00,162.19
             71.00,162.19 99.00,152.00 99.00,152.00
             95.83,147.57 82.65,133.51 78.00,131.74
             75.89,130.93 73.24,131.01 71.00,131.00
             71.00,131.00 28.00,131.00 28.00,131.00 Z
           M 413.00,152.00
           C 413.00,152.00 441.00,162.11 441.00,162.11
             441.00,162.11 452.00,161.00 452.00,161.00
             452.00,161.00 484.00,161.00 484.00,161.00
             484.00,161.00 484.00,131.00 484.00,131.00
             484.00,131.00 440.00,131.00 440.00,131.00
             437.48,131.04 435.33,131.01 433.00,132.17
             428.63,134.36 416.09,147.69 413.00,152.00 Z
           M 220.00,140.00
           C 217.68,147.91 218.00,154.91 218.00,163.00
             231.93,159.03 235.10,154.03 253.00,154.00
             263.86,153.98 268.28,153.91 279.00,157.20
             279.00,157.20 294.00,163.00 294.00,163.00
             294.00,157.65 294.22,152.31 293.42,147.00
             293.14,145.15 292.97,142.24 291.40,141.02
             289.50,139.54 286.20,140.35 284.00,140.49
             273.06,141.16 266.00,136.05 256.00,136.10
             256.00,136.10 247.00,136.10 247.00,136.10
             240.29,137.17 232.79,142.18 220.00,140.00 Z
           M 188.00,153.00
           C 188.00,153.00 121.00,176.95 121.00,176.95
             121.00,176.95 85.00,190.00 85.00,190.00
             71.95,194.44 65.70,195.33 53.00,202.31
             33.09,213.25 17.32,231.19 8.43,252.00
             -0.35,272.53 0.00,291.29 0.00,313.00
             0.00,313.00 0.00,371.00 0.00,371.00
             0.02,381.77 1.55,392.67 7.27,402.00
             18.22,419.88 42.35,428.22 62.00,420.54
             78.65,414.03 87.63,398.62 98.12,385.00
             98.12,385.00 133.88,339.00 133.88,339.00
             136.86,335.13 150.79,317.95 151.93,315.00
             152.56,313.03 151.97,304.81 151.93,302.00
             151.93,302.00 152.91,292.00 152.91,292.00
             154.20,273.15 156.89,255.08 162.74,237.00
             165.88,227.32 171.29,214.72 176.45,206.00
             182.46,195.84 187.98,193.03 188.00,181.00
             188.00,181.00 188.00,153.00 188.00,153.00 Z
           M 324.00,153.00
           C 324.00,153.00 324.00,182.00 324.00,182.00
             324.05,192.22 329.62,196.32 334.80,205.00
             340.81,215.07 346.13,226.78 349.57,238.00
             355.11,256.12 357.80,273.18 359.09,292.00
             359.09,292.00 360.08,303.00 360.08,303.00
             360.01,305.71 359.45,313.04 360.08,315.00
             361.11,317.67 370.99,329.88 373.42,333.00
             373.42,333.00 402.21,370.00 402.21,370.00
             402.21,370.00 423.21,397.00 423.21,397.00
             434.22,411.04 443.33,422.76 463.00,422.77
             466.59,423.04 471.55,423.16 475.00,422.77
             488.47,420.11 501.26,410.36 507.11,398.00
             513.36,384.79 512.00,366.45 512.00,352.00
             512.00,330.55 513.35,298.24 510.71,278.00
             509.57,269.21 506.38,258.05 502.69,250.00
             493.80,230.57 479.63,214.15 461.00,203.43
             447.00,195.37 441.94,195.27 428.00,190.31
             428.00,190.31 393.00,177.58 393.00,177.58
             393.00,177.58 348.00,161.31 348.00,161.31
             348.00,161.31 324.00,153.00 324.00,153.00 Z
           M 194.00,240.00
           C 194.00,240.00 318.00,240.00 318.00,240.00
             305.14,209.68 285.34,180.20 248.00,185.16
             242.57,185.88 236.84,188.25 232.00,190.78
             225.67,194.10 219.95,198.71 215.17,204.00
             205.05,215.20 199.79,226.36 194.00,240.00 Z
           M 186.00,271.00
           C 183.75,283.54 183.00,296.28 183.00,309.00
             183.00,309.00 329.00,309.00 329.00,309.00
             329.00,296.35 328.24,283.47 326.00,271.00
             326.00,271.00 186.00,271.00 186.00,271.00 Z
           M 189.00,340.00
           C 194.57,363.77 216.97,393.97 234.00,411.00
             239.55,416.55 242.84,419.89 249.00,424.92
             250.81,426.39 253.55,428.88 256.00,428.88
             258.45,428.88 261.19,426.39 263.00,424.92
             269.16,419.89 272.45,416.55 278.00,411.00
             295.11,393.88 317.40,363.89 323.00,340.00
             323.00,340.00 189.00,340.00 189.00,340.00 Z
           M 117.00,482.00
           C 119.07,487.62 123.98,494.78 127.32,500.00
             128.41,501.71 130.24,505.02 132.21,505.70
             135.35,506.80 144.10,500.23 147.00,498.42
             147.00,498.42 172.00,482.81 172.00,482.81
             174.77,481.09 181.46,477.40 182.98,474.79
             184.21,472.69 184.00,469.39 184.00,467.00
             184.00,467.00 184.00,406.00 184.00,406.00
             183.98,394.84 181.64,395.29 176.28,386.00
             171.52,377.74 164.14,364.11 162.00,355.00
             152.46,359.75 155.00,371.00 155.00,380.00
             155.00,380.00 155.00,450.00 155.00,450.00
             154.99,452.97 155.31,456.18 153.40,458.67
             151.76,460.82 143.73,465.50 141.00,467.19
             141.00,467.19 117.00,482.00 117.00,482.00 Z
           M 350.00,355.00
           C 348.12,363.02 341.66,375.79 337.40,383.00
             331.88,392.31 328.02,394.92 328.00,406.00
             328.00,406.00 328.00,467.00 328.00,467.00
             328.02,476.67 328.70,475.92 341.00,483.58
             341.00,483.58 380.00,507.00 380.00,507.00
             380.00,507.00 395.00,482.00 395.00,482.00
             395.00,482.00 369.00,466.05 369.00,466.05
             365.97,464.15 359.72,460.80 358.02,457.82
             356.79,455.66 357.00,452.44 357.00,450.00
             357.00,450.00 357.00,371.00 357.00,371.00
             356.97,364.09 356.83,358.43 350.00,355.00 Z" />
</svg>
