<?xml version="1.0" encoding="UTF-8" standalone="no"?>
<!DOCTYPE svg PUBLIC "-//W3C//DTD SVG 20010904//EN"
              "http://www.w3.org/TR/2001/REC-SVG-20010904/DTD/svg10.dtd">

<svg xmlns="http://www.w3.org/2000/svg"
     width="135.45mm" height="135.45mm"
     viewBox="0 0 512 512">
  <path id="Selection"
        fill="none" stroke="black" stroke-width="1"
        d="M 94.00,11.00
           C 94.00,11.00 73.00,31.00 73.00,31.00
             73.00,31.00 88.00,47.00 88.00,47.00
             88.00,47.00 95.23,56.00 95.23,56.00
             95.23,56.00 93.00,70.00 93.00,70.00
             93.00,70.00 80.00,57.00 80.00,57.00
             80.00,57.00 59.00,77.00 59.00,77.00
             63.48,83.26 75.95,94.95 82.00,101.00
             84.69,103.69 90.34,108.96 92.07,112.00
             92.07,112.00 96.35,129.00 96.35,129.00
             100.84,143.40 108.47,158.03 121.00,167.00
             121.00,156.40 121.40,150.45 123.88,140.00
             123.88,140.00 126.40,130.00 126.40,130.00
             126.91,125.86 124.79,121.93 123.75,118.00
             122.42,112.94 122.01,108.20 122.00,103.00
             121.98,91.63 120.98,76.73 123.92,66.00
             129.68,44.96 149.31,30.06 171.00,30.00
             171.00,30.00 171.00,0.00 171.00,0.00
             154.50,2.18 146.10,2.45 131.00,11.45
             126.46,14.16 121.90,17.53 118.00,21.09
             116.30,22.64 113.42,25.96 111.00,25.96
             108.80,25.96 106.48,23.41 105.00,21.99
             105.00,21.99 94.00,11.00 94.00,11.00 Z
           M 182.00,61.00
           C 190.69,57.15 198.83,52.48 208.00,49.72
             232.38,42.38 270.15,41.89 295.00,47.21
             310.91,50.62 319.07,56.46 328.00,59.00
             326.26,37.76 313.73,18.54 295.00,8.31
             284.78,2.73 272.59,0.14 261.00,0.00
             252.40,-0.10 241.35,-0.11 233.00,1.67
             211.95,6.14 193.13,21.55 185.86,42.00
             183.64,48.24 182.15,54.36 182.00,61.00 Z
           M 340.00,0.00
           C 340.00,0.00 340.00,30.00 340.00,30.00
             347.39,30.02 352.14,30.88 359.00,33.87
             362.99,35.62 366.59,37.98 370.00,40.67
             390.43,56.81 389.04,77.76 389.00,101.00
             388.98,114.62 385.16,123.06 385.26,127.00
             385.36,130.37 387.72,137.20 388.58,141.00
             390.41,149.19 391.32,157.65 392.00,166.00
             402.68,158.29 410.56,142.47 414.28,130.00
             416.37,123.00 416.40,113.32 420.96,108.46
             420.96,108.46 442.00,88.00 442.00,88.00
             444.12,85.87 449.62,81.05 449.66,78.00
             449.70,75.42 446.67,72.71 444.99,71.00
             444.99,71.00 431.00,57.00 431.00,57.00
             431.00,57.00 417.00,70.00 417.00,70.00
             417.00,70.00 415.46,55.42 415.46,55.42
             415.46,55.42 422.00,48.00 422.00,48.00
             422.00,48.00 438.00,32.00 438.00,32.00
             438.00,32.00 418.00,11.00 418.00,11.00
             412.95,14.62 410.36,17.79 406.00,21.99
             404.52,23.41 402.20,25.95 400.00,25.96
             397.62,25.96 394.71,22.68 393.00,21.17
             389.10,17.71 384.47,14.12 380.00,11.45
             365.79,2.98 355.72,2.07 340.00,0.00 Z
           M 152.00,156.00
           C 152.00,156.00 237.00,180.98 237.00,180.98
             240.88,182.17 252.58,185.79 256.00,185.82
             259.87,185.85 265.23,183.85 269.00,182.72
             269.00,182.72 292.00,176.00 292.00,176.00
             292.00,176.00 341.00,161.58 341.00,161.58
             344.32,160.63 357.38,157.61 358.98,155.30
             360.11,153.64 359.36,150.83 358.98,149.00
             358.05,144.20 356.38,138.53 354.55,134.00
             345.80,112.39 330.72,95.54 310.00,84.78
             300.21,79.70 284.06,75.13 273.00,75.00
             259.62,74.85 237.39,74.07 225.00,76.89
             197.17,83.21 172.38,101.84 160.31,128.00
             155.63,138.15 154.03,145.19 152.00,156.00 Z
           M 362.00,187.00
           C 362.00,187.00 340.00,193.72 340.00,193.72
             340.00,193.72 294.00,207.29 294.00,207.29
             294.00,207.29 279.00,211.71 279.00,211.71
             279.00,211.71 273.02,214.56 273.02,214.56
             273.02,214.56 272.00,222.00 272.00,222.00
             272.00,222.00 272.00,407.00 272.00,407.00
             272.00,407.00 293.00,407.00 293.00,407.00
             301.74,406.96 311.01,404.66 319.00,401.14
             325.93,398.09 332.22,394.65 338.00,389.70
             356.03,374.27 365.72,352.64 366.00,329.00
             366.00,329.00 367.00,310.00 367.00,310.00
             367.00,310.00 367.00,292.00 367.00,292.00
             367.00,292.00 367.00,243.00 367.00,243.00
             367.00,243.00 366.00,230.00 366.00,230.00
             366.00,230.00 364.17,205.00 364.17,205.00
             363.74,200.57 363.48,190.73 362.00,187.00 Z
           M 241.00,407.00
           C 241.00,407.00 241.00,310.00 241.00,310.00
             241.00,310.00 241.00,222.00 241.00,222.00
             241.00,220.00 241.26,216.34 240.01,214.72
             238.41,212.67 227.04,209.88 224.00,209.00
             224.00,209.00 173.00,194.00 173.00,194.00
             173.00,194.00 158.00,189.58 158.00,189.58
             156.20,189.08 153.11,188.00 151.31,188.69
             148.38,189.82 148.95,196.20 148.58,199.00
             148.58,199.00 146.00,234.00 146.00,234.00
             146.00,234.00 145.00,251.00 145.00,251.00
             145.00,251.00 145.00,303.00 145.00,303.00
             145.00,303.00 146.00,324.00 146.00,324.00
             146.32,350.63 155.68,376.54 178.00,392.57
             183.21,396.31 189.00,399.64 195.00,401.94
             203.33,405.12 211.06,406.99 220.00,407.00
             220.00,407.00 241.00,407.00 241.00,407.00 Z
           M 396.00,213.00
           C 396.00,213.00 397.58,240.00 397.58,240.00
             398.05,243.60 397.43,247.27 400.29,249.96
             400.29,249.96 412.00,257.42 412.00,257.42
             412.00,257.42 437.00,272.80 437.00,272.80
             440.39,274.86 449.96,279.86 451.40,283.21
             452.12,284.89 452.00,288.12 452.00,290.00
             452.00,290.00 452.00,330.00 452.00,330.00
             451.99,332.44 452.04,334.61 451.37,337.00
             451.37,337.00 434.00,373.00 434.00,373.00
             434.00,373.00 461.00,386.00 461.00,386.00
             461.00,386.00 473.25,360.00 473.25,360.00
             477.86,350.78 480.98,347.55 481.00,337.00
             481.00,337.00 481.00,273.00 481.00,273.00
             481.00,271.12 481.12,267.89 480.40,266.21
             478.77,262.42 465.09,255.28 461.00,252.80
             461.00,252.80 420.00,227.58 420.00,227.58
             420.00,227.58 396.00,213.00 396.00,213.00 Z
           M 115.00,214.00
           C 115.00,214.00 52.00,253.19 52.00,253.19
             48.45,255.37 33.63,263.80 32.02,266.38
             30.78,268.37 31.00,271.69 31.00,274.00
             31.00,274.00 31.00,338.00 31.00,338.00
             31.02,348.55 34.14,351.78 38.75,361.00
             38.75,361.00 51.00,387.00 51.00,387.00
             51.00,387.00 78.00,374.00 78.00,374.00
             78.00,374.00 60.63,338.00 60.63,338.00
             59.90,335.40 60.00,332.68 60.00,330.00
             60.00,330.00 60.00,291.00 60.00,291.00
             60.00,288.69 59.78,285.37 61.02,283.38
             62.67,280.74 78.31,271.87 82.00,269.58
             82.00,269.58 104.00,256.00 104.00,256.00
             106.91,254.25 111.96,251.64 113.60,248.68
             115.43,245.36 114.99,237.90 115.00,234.00
             115.01,227.83 117.10,219.29 115.00,214.00 Z
           M 115.00,331.00
           C 115.00,331.00 97.00,344.37 97.00,344.37
             94.83,346.00 90.32,349.08 89.02,351.30
             87.78,353.42 88.00,356.59 88.00,359.00
             88.00,359.00 88.00,461.00 88.00,461.00
             88.02,471.64 92.96,474.33 99.93,482.00
             99.93,482.00 115.00,499.00 115.00,499.00
             117.48,501.72 123.34,509.71 127.00,509.66
             129.49,509.63 132.25,506.64 134.00,505.07
             134.00,505.07 148.00,493.00 148.00,493.00
             144.92,486.44 131.09,472.37 125.58,466.00
             123.19,463.24 118.98,459.25 117.74,456.00
             116.87,453.72 117.00,450.45 117.00,448.00
             117.00,448.00 117.00,387.00 117.00,387.00
             117.00,382.85 116.34,370.17 118.02,367.11
             118.92,365.48 119.70,365.11 121.00,364.00
             121.00,364.00 116.59,343.00 116.59,343.00
             116.59,343.00 115.00,331.00 115.00,331.00 Z
           M 397.00,331.00
           C 397.00,331.00 394.74,349.00 394.74,349.00
             394.74,349.00 392.31,361.00 392.31,361.00
             392.45,365.55 394.86,365.21 395.00,373.00
             395.00,373.00 395.00,449.00 395.00,449.00
             394.98,459.64 390.04,462.33 383.07,470.00
             383.07,470.00 364.00,491.00 364.00,491.00
             368.11,496.73 380.59,508.26 387.00,511.00
             387.00,511.00 413.16,481.00 413.16,481.00
             420.00,473.35 423.98,471.63 424.00,461.00
             424.00,461.00 424.00,359.00 424.00,359.00
             424.00,356.54 424.21,353.37 422.98,351.17
             421.63,348.76 417.30,345.85 415.00,344.13
             415.00,344.13 397.00,331.00 397.00,331.00 Z" />
</svg>
