<?xml version="1.0" encoding="UTF-8" standalone="no"?>
<!DOCTYPE svg PUBLIC "-//W3C//DTD SVG 20010904//EN"
              "http://www.w3.org/TR/2001/REC-SVG-20010904/DTD/svg10.dtd">

<svg xmlns="http://www.w3.org/2000/svg"
     width="135.486mm" height="135.486mm"
     viewBox="0 0 512 512">
  <path id="Selection"
        fill="none" stroke="black" stroke-width="1"
        d="M 209.00,4.00
           C 209.00,4.00 209.00,27.00 209.00,27.00
             208.97,43.01 200.19,36.70 189.09,54.00
             176.40,73.77 178.81,87.25 186.00,108.00
             192.53,105.39 201.18,101.77 208.00,100.46
             220.72,98.02 244.14,99.00 258.00,99.00
             271.30,99.00 291.57,98.08 304.00,100.46
             311.72,101.94 318.81,104.95 326.00,108.00
             333.11,87.51 335.66,73.50 322.90,54.00
             311.57,36.67 303.03,42.85 303.00,27.00
             303.00,27.00 303.00,4.00 303.00,4.00
             303.00,4.00 280.00,4.00 280.00,4.00
             280.00,4.00 280.00,20.00 280.00,20.00
             279.99,22.77 280.29,26.44 278.40,28.69
             276.29,31.19 272.96,30.98 270.00,31.00
             270.00,31.00 241.00,31.00 241.00,31.00
             238.27,30.95 235.53,30.97 233.60,28.69
             232.01,26.80 232.05,24.32 232.00,22.00
             232.00,22.00 232.00,4.00 232.00,4.00
             232.00,4.00 209.00,4.00 209.00,4.00 Z
           M 94.00,7.00
           C 94.00,7.00 78.25,38.00 78.25,38.00
             76.39,41.71 72.43,47.90 73.16,52.00
             73.16,52.00 86.74,82.00 86.74,82.00
             86.74,82.00 108.24,128.00 108.24,128.00
             108.24,128.00 124.22,162.00 124.22,162.00
             124.22,162.00 129.26,172.95 129.26,172.95
             129.89,174.05 130.57,175.26 131.63,176.01
             133.74,177.48 141.13,177.58 142.83,175.43
             144.13,173.77 144.17,167.53 144.61,165.00
             147.02,151.30 143.87,151.11 138.31,139.00
             138.31,139.00 128.22,117.00 128.22,117.00
             128.22,117.00 107.14,72.00 107.14,72.00
             105.18,67.60 99.06,56.03 98.43,52.00
             97.75,47.66 100.85,42.81 102.75,39.00
             102.75,39.00 114.00,16.00 114.00,16.00
             114.00,16.00 94.00,7.00 94.00,7.00 Z
           M 398.00,16.00
           C 398.00,16.00 409.25,39.00 409.25,39.00
             411.18,42.86 414.21,47.59 413.58,52.00
             412.93,56.57 407.02,67.16 404.86,72.00
             404.86,72.00 383.78,117.00 383.78,117.00
             383.78,117.00 373.69,139.00 373.69,139.00
             368.31,150.71 365.06,151.76 367.39,165.00
             367.83,167.53 367.87,173.77 369.17,175.43
             370.87,177.58 378.26,177.48 380.37,176.01
             381.43,175.26 382.11,174.05 382.74,172.95
             382.74,172.95 387.78,162.00 387.78,162.00
             387.78,162.00 403.76,128.00 403.76,128.00
             403.76,128.00 430.14,72.00 430.14,72.00
             432.13,67.53 439.32,53.88 438.99,50.00
             438.75,47.21 434.23,38.96 432.75,36.00
             432.75,36.00 418.00,7.00 418.00,7.00
             418.00,7.00 398.00,16.00 398.00,16.00 Z
           M 181.00,177.00
           C 200.40,177.00 211.72,175.62 230.00,184.76
             236.79,188.15 242.34,192.11 248.00,197.17
             249.92,198.88 253.35,202.80 256.00,202.80
             258.65,202.80 262.08,198.88 264.00,197.17
             269.67,192.11 275.21,188.16 282.00,184.76
             300.39,175.56 311.44,177.00 331.00,177.00
             330.76,171.89 329.79,167.78 327.93,163.00
             320.71,144.38 302.99,136.03 284.00,136.00
             284.00,136.00 273.00,136.00 273.00,136.00
             273.00,136.00 248.00,136.00 248.00,136.00
             234.39,136.00 218.50,134.47 206.00,140.32
             191.58,147.07 181.37,160.86 181.00,177.00 Z
           M 6.00,324.00
           C 6.00,324.00 25.00,334.00 25.00,334.00
             25.00,334.00 69.40,260.00 69.40,260.00
             72.09,255.52 80.38,240.08 84.10,238.02
             86.31,236.80 89.52,237.00 92.00,237.00
             92.00,237.00 101.00,237.00 101.00,237.00
             101.00,237.00 101.00,214.00 101.00,214.00
             101.00,214.00 78.00,214.00 78.00,214.00
             75.81,214.00 72.46,213.75 70.61,214.99
             68.87,216.16 66.73,220.12 65.60,222.00
             65.60,222.00 56.00,238.00 56.00,238.00
             56.00,238.00 21.80,295.00 21.80,295.00
             17.57,302.04 7.47,316.77 6.00,324.00 Z
           M 411.00,214.00
           C 411.00,214.00 411.00,237.00 411.00,237.00
             411.00,237.00 420.00,237.00 420.00,237.00
             422.48,237.00 425.69,236.80 427.90,238.02
             431.62,240.08 439.91,255.52 442.60,260.00
             442.60,260.00 487.00,334.00 487.00,334.00
             487.00,334.00 506.00,324.00 506.00,324.00
             504.53,316.77 494.43,302.04 490.20,295.00
             490.20,295.00 456.00,238.00 456.00,238.00
             456.00,238.00 446.40,222.00 446.40,222.00
             445.27,220.12 443.13,216.16 441.39,214.99
             439.54,213.75 436.19,214.00 434.00,214.00
             434.00,214.00 411.00,214.00 411.00,214.00 Z
           M 138.00,216.00
           C 138.00,216.00 138.00,301.00 138.00,301.00
             138.00,301.00 138.00,344.00 138.00,344.00
             138.43,380.26 159.84,419.10 190.00,438.92
             208.30,450.95 217.89,452.67 238.00,458.00
             238.00,458.00 238.00,264.00 238.00,264.00
             237.91,256.31 236.62,243.61 232.64,237.04
             228.78,230.68 219.61,225.88 213.00,222.78
             192.79,213.30 160.61,216.00 138.00,216.00 Z
           M 274.00,458.00
           C 286.63,455.62 300.75,451.40 312.00,445.14
             348.28,424.94 373.80,386.19 374.00,344.00
             374.00,344.00 374.00,300.00 374.00,300.00
             374.00,300.00 374.00,216.00 374.00,216.00
             351.39,216.00 319.21,213.30 299.00,222.78
             292.39,225.88 283.22,230.68 279.36,237.04
             275.24,243.84 274.04,257.04 274.00,265.00
             274.00,265.00 274.00,458.00 274.00,458.00 Z
           M 100.00,351.00
           C 96.27,353.49 84.03,360.57 82.60,364.10
             81.88,365.87 82.00,369.05 82.00,371.00
             82.00,371.00 82.00,478.00 82.00,478.00
             82.00,480.38 81.79,483.70 83.02,485.79
             84.47,488.25 89.45,490.68 92.00,492.20
             98.54,496.11 110.28,504.04 117.00,506.00
             117.00,506.00 128.00,487.00 128.00,487.00
             122.82,484.01 108.54,476.75 106.02,471.96
             104.81,469.65 105.01,466.56 105.00,464.00
             105.00,464.00 105.00,382.00 105.00,382.00
             105.00,382.00 102.42,361.00 102.42,361.00
             101.83,356.68 102.47,354.82 100.00,351.00 Z
           M 411.00,351.00
           C 411.00,351.00 409.58,361.00 409.58,361.00
             406.66,382.12 407.00,383.01 407.00,404.00
             407.00,404.00 407.00,464.00 407.00,464.00
             406.99,466.56 407.19,469.65 405.98,471.96
             403.60,476.48 389.01,484.32 384.00,487.00
             384.00,487.00 395.00,506.00 395.00,506.00
             401.90,503.99 412.30,496.70 419.00,492.85
             421.83,491.23 427.37,488.55 428.98,485.79
             430.21,483.69 430.00,480.39 430.00,478.00
             430.00,478.00 430.00,371.00 430.00,371.00
             430.00,368.57 430.20,365.33 428.98,363.18
             427.20,360.08 414.65,352.78 411.00,351.00 Z" />
</svg>
