<?xml version="1.0" encoding="UTF-8" standalone="no"?>
<!DOCTYPE svg PUBLIC "-//W3C//DTD SVG 20010904//EN"
              "http://www.w3.org/TR/2001/REC-SVG-20010904/DTD/svg10.dtd">

<svg xmlns="http://www.w3.org/2000/svg"
     width="135.45mm" height="135.45mm"
     viewBox="0 0 512 512">
  <path id="Selection"
        fill="none" stroke="black" stroke-width="1"
        d="M 149.00,0.00
           C 149.00,0.00 149.00,30.00 149.00,30.00
             149.00,30.00 179.00,30.00 179.00,30.00
             187.44,30.16 189.52,34.76 194.35,41.00
             194.35,41.00 214.00,66.00 214.00,66.00
             224.51,57.44 224.19,54.95 238.00,49.00
             238.00,49.00 210.88,14.00 210.88,14.00
             210.88,14.00 198.83,0.60 198.83,0.60
             198.83,0.60 192.00,0.00 192.00,0.00
             192.00,0.00 149.00,0.00 149.00,0.00 Z
           M 274.00,49.00
           C 282.91,52.84 289.97,57.21 296.00,65.00
             302.26,61.89 313.11,46.20 317.88,40.00
             322.51,33.99 323.95,30.15 332.00,30.00
             332.00,30.00 362.00,30.00 362.00,30.00
             362.00,30.00 362.00,0.00 362.00,0.00
             362.00,0.00 319.00,0.00 319.00,0.00
             308.66,0.02 308.52,3.78 302.00,12.00
             296.02,19.54 277.54,42.13 274.00,49.00 Z
           M 53.00,70.00
           C 53.00,70.00 53.00,100.00 53.00,100.00
             53.00,100.00 85.00,100.00 85.00,100.00
             86.95,100.00 90.05,99.88 91.83,100.60
             95.42,102.06 103.34,112.56 106.27,116.00
             106.27,116.00 138.73,154.00 138.73,154.00
             145.99,162.48 147.44,167.98 159.00,168.00
             159.00,168.00 192.00,168.00 192.00,168.00
             192.00,168.00 192.00,139.00 192.00,139.00
             192.00,139.00 171.00,139.00 171.00,139.00
             162.81,138.84 160.77,133.89 155.73,128.00
             155.73,128.00 130.13,98.00 130.13,98.00
             130.13,98.00 114.73,80.00 114.73,80.00
             112.67,77.59 108.57,72.38 105.96,71.02
             103.64,69.81 100.57,70.01 98.00,70.00
             98.00,70.00 53.00,70.00 53.00,70.00 Z
           M 320.00,139.00
           C 320.00,139.00 320.00,168.00 320.00,168.00
             320.00,168.00 353.00,168.00 353.00,168.00
             364.56,167.98 366.01,162.48 373.27,154.00
             373.27,154.00 405.73,116.00 405.73,116.00
             408.66,112.56 416.58,102.06 420.17,100.60
             421.95,99.88 425.05,100.00 427.00,100.00
             427.00,100.00 459.00,100.00 459.00,100.00
             459.00,100.00 459.00,70.00 459.00,70.00
             459.00,70.00 414.00,70.00 414.00,70.00
             411.43,70.01 408.36,69.81 406.04,71.02
             403.43,72.38 399.33,77.59 397.27,80.00
             397.27,80.00 381.87,98.00 381.87,98.00
             381.87,98.00 357.13,127.00 357.13,127.00
             351.12,133.98 349.61,138.93 340.00,139.00
             340.00,139.00 320.00,139.00 320.00,139.00 Z
           M 223.00,207.00
           C 223.00,207.00 289.00,207.00 289.00,207.00
             289.00,207.00 289.00,118.00 289.00,118.00
             288.98,105.33 286.63,102.98 279.42,93.00
             271.58,82.13 265.82,74.68 251.00,77.33
             242.78,78.80 238.53,84.67 234.00,91.00
             226.29,101.79 223.02,104.18 223.00,118.00
             223.00,118.00 223.00,207.00 223.00,207.00 Z
           M 191.00,202.00
           C 191.00,202.00 142.00,239.13 142.00,239.13
             142.00,239.13 123.00,252.44 123.00,252.44
             123.00,252.44 116.00,253.00 116.00,253.00
             116.00,253.00 55.00,253.00 55.00,253.00
             55.00,253.00 55.00,282.00 55.00,282.00
             55.00,282.00 127.00,282.00 127.00,282.00
             137.27,281.98 138.97,278.65 147.00,272.63
             147.00,272.63 168.00,256.87 168.00,256.87
             168.00,256.87 183.00,245.63 183.00,245.63
             185.17,244.00 189.68,240.92 190.98,238.70
             192.01,236.93 191.96,234.98 192.00,233.00
             192.11,226.83 192.84,206.63 191.00,202.00 Z
           M 320.00,202.00
           C 320.00,202.00 320.00,231.00 320.00,231.00
             320.00,231.00 321.02,238.70 321.02,238.70
             321.02,238.70 329.00,245.63 329.00,245.63
             329.00,245.63 346.00,258.37 346.00,258.37
             346.00,258.37 367.00,274.13 367.00,274.13
             367.00,274.13 378.00,281.44 378.00,281.44
             378.00,281.44 385.00,282.00 385.00,282.00
             385.00,282.00 457.00,282.00 457.00,282.00
             457.00,282.00 457.00,253.00 457.00,253.00
             457.00,253.00 396.00,253.00 396.00,253.00
             396.00,253.00 389.00,252.44 389.00,252.44
             389.00,252.44 370.00,239.13 370.00,239.13
             370.00,239.13 320.00,202.00 320.00,202.00 Z
           M 223.00,238.00
           C 223.00,238.00 223.00,356.00 223.00,356.00
             223.02,366.30 226.15,376.08 228.63,386.00
             228.63,386.00 238.37,426.00 238.37,426.00
             238.37,426.00 249.12,469.00 249.12,469.00
             249.98,472.62 250.98,481.37 256.00,481.37
             261.02,481.37 262.02,472.62 262.88,469.00
             262.88,469.00 273.63,426.00 273.63,426.00
             273.63,426.00 283.37,386.00 283.37,386.00
             285.85,376.08 288.98,366.30 289.00,356.00
             289.00,356.00 289.00,238.00 289.00,238.00
             289.00,238.00 223.00,238.00 223.00,238.00 Z
           M 215.00,460.00
           C 215.00,460.00 198.63,392.00 198.63,392.00
             195.99,381.45 192.02,369.82 192.00,359.00
             192.00,359.00 192.00,251.00 192.00,251.00
             186.38,253.15 183.42,255.76 179.09,259.85
             166.32,271.90 159.03,287.36 159.00,305.00
             159.00,305.00 159.00,423.00 159.00,423.00
             159.05,454.12 186.76,471.21 215.00,460.00 Z
           M 320.00,251.00
           C 320.00,251.00 320.00,359.00 320.00,359.00
             319.98,369.82 316.01,381.45 313.37,392.00
             313.37,392.00 297.00,460.00 297.00,460.00
             325.24,471.21 352.95,454.12 353.00,423.00
             353.00,423.00 353.00,305.00 353.00,305.00
             352.97,284.45 339.90,258.62 320.00,251.00 Z
           M 184.00,493.00
           C 184.00,493.00 184.00,512.00 184.00,512.00
             184.00,512.00 213.00,512.00 213.00,512.00
             213.00,512.00 213.00,493.00 213.00,493.00
             203.43,494.26 193.55,494.71 184.00,493.00 Z
           M 299.00,493.00
           C 299.00,493.00 299.00,512.00 299.00,512.00
             299.00,512.00 328.00,512.00 328.00,512.00
             328.00,512.00 328.00,493.00 328.00,493.00
             318.45,494.71 308.57,494.26 299.00,493.00 Z" />
</svg>
