<?xml version="1.0" encoding="UTF-8" standalone="no"?>
<!DOCTYPE svg PUBLIC "-//W3C//DTD SVG 20010904//EN"
              "http://www.w3.org/TR/2001/REC-SVG-20010904/DTD/svg10.dtd">

<svg xmlns="http://www.w3.org/2000/svg"
     width="135.45mm" height="135.45mm"
     viewBox="0 0 512 512">
  <path id="Selection"
        fill="none" stroke="black" stroke-width="1"
        d="M 152.00,4.00
           C 152.00,4.00 152.00,26.00 152.00,26.00
             152.00,26.00 179.00,26.00 179.00,26.00
             189.13,26.07 191.09,31.47 196.88,39.00
             196.88,39.00 214.00,61.00 214.00,61.00
             221.19,55.87 224.14,51.28 233.00,48.00
             233.00,48.00 209.88,18.00 209.88,18.00
             209.88,18.00 197.83,4.60 197.83,4.60
             197.83,4.60 191.00,4.00 191.00,4.00
             191.00,4.00 152.00,4.00 152.00,4.00 Z
           M 279.00,48.00
           C 283.54,49.68 286.22,51.46 290.00,54.46
             291.70,55.81 294.69,58.82 296.91,58.80
             299.70,58.79 303.34,53.10 305.00,51.00
             305.00,51.00 323.29,28.31 323.29,28.31
             326.40,25.63 329.16,26.01 333.00,26.00
             333.00,26.00 359.00,26.00 359.00,26.00
             359.00,26.00 359.00,4.00 359.00,4.00
             359.00,4.00 321.00,4.00 321.00,4.00
             309.39,4.02 308.40,9.26 301.58,18.00
             301.58,18.00 288.12,35.00 288.12,35.00
             284.86,39.24 281.21,43.10 279.00,48.00 Z
           M 56.00,74.00
           C 56.00,74.00 56.00,97.00 56.00,97.00
             56.00,97.00 86.00,97.00 86.00,97.00
             97.77,97.02 99.00,102.47 106.27,111.00
             106.27,111.00 138.73,149.00 138.73,149.00
             141.51,152.25 150.02,163.07 153.28,164.43
             154.99,165.14 158.11,165.00 160.00,165.00
             160.00,165.00 189.00,165.00 189.00,165.00
             189.00,165.00 189.00,142.00 189.00,142.00
             189.00,142.00 170.00,142.00 170.00,142.00
             161.43,141.84 159.23,137.06 154.00,131.00
             154.00,131.00 128.42,101.00 128.42,101.00
             128.42,101.00 113.00,83.00 113.00,83.00
             110.88,80.55 107.79,76.46 104.99,75.02
             102.62,73.81 99.60,74.01 97.00,74.00
             97.00,74.00 56.00,74.00 56.00,74.00 Z
           M 323.00,142.00
           C 323.00,142.00 323.00,165.00 323.00,165.00
             323.00,165.00 352.00,165.00 352.00,165.00
             353.89,165.00 357.01,165.14 358.72,164.43
             361.98,163.07 370.49,152.25 373.27,149.00
             373.27,149.00 405.73,111.00 405.73,111.00
             413.00,102.47 414.23,97.02 426.00,97.00
             426.00,97.00 456.00,97.00 456.00,97.00
             456.00,97.00 456.00,74.00 456.00,74.00
             456.00,74.00 415.00,74.00 415.00,74.00
             412.40,74.01 409.38,73.81 407.01,75.02
             404.21,76.46 401.12,80.55 399.00,83.00
             399.00,83.00 383.58,101.00 383.58,101.00
             383.58,101.00 358.87,130.00 358.87,130.00
             352.75,137.11 350.94,141.93 341.00,142.00
             341.00,142.00 323.00,142.00 323.00,142.00 Z
           M 226.00,204.00
           C 226.00,204.00 286.00,204.00 286.00,204.00
             286.00,204.00 286.00,119.00 286.00,119.00
             285.85,106.48 281.90,101.68 274.63,92.00
             269.66,85.40 264.95,80.08 256.00,80.08
             247.05,80.08 242.34,85.40 237.37,92.00
             229.61,102.33 226.06,106.70 226.00,120.00
             226.00,120.00 226.00,204.00 226.00,204.00 Z
           M 188.00,209.00
           C 188.00,209.00 143.00,242.63 143.00,242.63
             143.00,242.63 124.00,255.86 124.00,255.86
             124.00,255.86 117.00,255.86 117.00,255.86
             117.00,255.86 58.00,255.86 58.00,255.86
             58.00,255.86 58.00,279.00 58.00,279.00
             58.00,279.00 125.00,279.00 125.00,279.00
             125.00,279.00 133.00,278.28 133.00,278.28
             133.00,278.28 144.00,270.87 144.00,270.87
             144.00,270.87 165.00,254.87 165.00,254.87
             165.00,254.87 180.00,243.63 180.00,243.63
             180.00,243.63 187.98,236.70 187.98,236.70
             187.98,236.70 189.00,231.00 189.00,231.00
             189.00,231.00 188.00,209.00 188.00,209.00 Z
           M 323.00,209.00
           C 323.00,209.00 323.00,229.00 323.00,229.00
             323.02,239.66 326.75,239.69 336.00,246.63
             336.00,246.63 365.00,268.37 365.00,268.37
             373.50,274.75 376.08,278.98 387.00,279.00
             387.00,279.00 454.00,279.00 454.00,279.00
             454.00,279.00 454.00,255.86 454.00,255.86
             454.00,255.86 395.00,255.86 395.00,255.86
             395.00,255.86 388.00,255.86 388.00,255.86
             388.00,255.86 369.00,242.63 369.00,242.63
             369.00,242.63 323.00,209.00 323.00,209.00 Z
           M 226.00,241.00
           C 226.00,241.00 226.00,355.00 226.00,355.00
             226.02,367.05 233.46,391.17 236.63,404.00
             236.63,404.00 249.13,455.00 249.13,455.00
             249.13,455.00 255.00,478.00 255.00,478.00
             255.00,478.00 257.00,478.00 257.00,478.00
             257.00,478.00 262.87,455.00 262.87,455.00
             262.87,455.00 275.37,404.00 275.37,404.00
             278.54,391.17 285.98,367.05 286.00,355.00
             286.00,355.00 286.00,241.00 286.00,241.00
             286.00,241.00 226.00,241.00 226.00,241.00 Z
           M 211.00,458.00
           C 211.00,458.00 195.13,392.00 195.13,392.00
             192.50,381.48 189.02,370.92 189.00,360.00
             189.00,360.00 189.00,257.00 189.00,257.00
             171.46,264.49 162.03,290.00 162.00,308.00
             162.00,308.00 162.00,421.00 162.00,421.00
             162.04,448.96 183.97,466.76 211.00,458.00 Z
           M 323.00,257.00
           C 323.00,257.00 323.00,360.00 323.00,360.00
             322.98,370.92 319.50,381.48 316.87,392.00
             316.87,392.00 301.00,458.00 301.00,458.00
             328.03,466.76 349.96,448.96 350.00,421.00
             350.00,421.00 350.00,308.00 350.00,308.00
             349.97,290.00 340.54,264.49 323.00,257.00 Z
           M 187.00,497.00
           C 187.00,497.00 187.00,508.00 187.00,508.00
             187.00,508.00 210.00,508.00 210.00,508.00
             210.00,508.00 210.00,497.00 210.00,497.00
             210.00,497.00 200.00,497.91 200.00,497.91
             200.00,497.91 187.00,497.00 187.00,497.00 Z
           M 302.00,497.00
           C 302.00,497.00 302.00,508.00 302.00,508.00
             302.00,508.00 325.00,508.00 325.00,508.00
             325.00,508.00 325.00,497.00 325.00,497.00
             325.00,497.00 315.00,497.91 315.00,497.91
             315.00,497.91 302.00,497.00 302.00,497.00 Z" />
</svg>
