<?xml version="1.0" encoding="UTF-8" standalone="no"?>
<!DOCTYPE svg PUBLIC "-//W3C//DTD SVG 20010904//EN"
              "http://www.w3.org/TR/2001/REC-SVG-20010904/DTD/svg10.dtd">

<svg xmlns="http://www.w3.org/2000/svg"
     width="135.45mm" height="135.45mm"
     viewBox="0 0 512 512">
  <path id="Selection"
        fill="none" stroke="black" stroke-width="1"
        d="M 100.00,11.00
           C 100.00,11.00 127.58,103.00 127.58,103.00
             127.58,103.00 135.98,131.00 135.98,131.00
             137.05,134.51 139.34,143.26 140.93,146.00
             143.63,150.66 160.30,167.05 164.91,172.00
             170.11,177.58 184.27,194.05 190.00,197.00
             190.00,197.00 205.00,181.00 205.00,181.00
             205.00,181.00 192.01,167.00 192.01,167.00
             192.01,167.00 160.84,133.00 160.84,133.00
             160.84,133.00 155.98,119.00 155.98,119.00
             155.98,119.00 147.98,92.00 147.98,92.00
             147.98,92.00 130.58,34.00 130.58,34.00
             130.58,34.00 122.00,5.00 122.00,5.00
             122.00,5.00 100.00,11.00 100.00,11.00 Z
           M 390.00,5.00
           C 390.00,5.00 381.72,33.00 381.72,33.00
             381.72,33.00 366.14,85.00 366.14,85.00
             366.14,85.00 356.34,118.00 356.34,118.00
             356.34,118.00 351.16,133.00 351.16,133.00
             351.16,133.00 332.00,154.00 332.00,154.00
             332.00,154.00 307.00,180.00 307.00,180.00
             307.00,180.00 322.00,197.00 322.00,197.00
             327.73,194.05 341.89,177.58 347.09,172.00
             351.70,167.05 368.37,150.66 371.07,146.00
             372.66,143.26 374.95,134.51 376.02,131.00
             376.02,131.00 384.42,103.00 384.42,103.00
             384.42,103.00 412.00,11.00 412.00,11.00
             412.00,11.00 390.00,5.00 390.00,5.00 Z
           M 447.00,36.00
           C 447.00,36.00 410.69,136.00 410.69,136.00
             410.69,136.00 399.05,168.00 399.05,168.00
             399.05,168.00 392.49,183.79 392.49,183.79
             392.49,183.79 376.00,193.31 376.00,193.31
             376.00,193.31 333.00,216.00 333.00,216.00
             335.48,223.45 337.63,230.07 338.00,238.00
             345.02,236.00 353.48,230.84 360.00,227.31
             360.00,227.31 389.00,212.25 389.00,212.25
             393.72,209.88 408.40,203.12 411.16,199.61
             412.75,197.59 416.57,186.15 417.69,183.00
             417.69,183.00 429.69,150.00 429.69,150.00
             429.69,150.00 454.05,83.00 454.05,83.00
             454.05,83.00 468.00,44.00 468.00,44.00
             468.00,44.00 447.00,36.00 447.00,36.00 Z
           M 44.00,44.00
           C 44.00,44.00 57.95,83.00 57.95,83.00
             57.95,83.00 82.31,150.00 82.31,150.00
             82.31,150.00 94.31,183.00 94.31,183.00
             94.31,183.00 100.99,199.61 100.99,199.61
             100.99,199.61 123.00,212.25 123.00,212.25
             123.00,212.25 154.00,228.31 154.00,228.31
             154.00,228.31 174.00,238.00 174.00,238.00
             174.37,230.07 176.52,223.45 179.00,216.00
             179.00,216.00 136.00,193.31 136.00,193.31
             136.00,193.31 119.51,183.79 119.51,183.79
             119.51,183.79 113.66,170.00 113.66,170.00
             113.66,170.00 105.66,148.00 105.66,148.00
             105.66,148.00 79.05,75.00 79.05,75.00
             79.05,75.00 69.31,48.00 69.31,48.00
             69.31,48.00 64.49,38.11 64.49,38.11
             64.49,38.11 58.00,38.70 58.00,38.70
             58.00,38.70 44.00,44.00 44.00,44.00 Z
           M 214.00,174.00
           C 221.99,170.45 226.01,167.55 235.00,165.15
             240.50,163.69 244.30,163.03 250.00,163.00
             274.35,162.89 275.94,163.44 298.00,174.00
             298.00,164.42 297.54,159.94 293.56,151.00
             281.90,124.78 250.71,116.32 229.01,136.17
             217.90,146.34 214.00,159.42 214.00,174.00 Z
           M 248.00,200.46
           C 225.39,205.50 211.83,223.27 210.18,246.00
             209.21,259.40 221.02,279.22 228.34,290.00
             233.58,297.70 241.82,308.12 248.07,315.00
             249.88,316.98 253.93,322.52 256.87,321.66
             258.61,321.16 262.57,316.49 263.93,315.00
             263.93,315.00 278.63,297.00 278.63,297.00
             287.75,284.83 300.65,264.42 301.82,249.00
             302.17,244.37 300.18,235.43 298.56,231.00
             290.46,208.78 271.31,197.24 248.00,200.46 Z
           M 4.00,327.00
           C 4.00,327.00 4.00,350.00 4.00,350.00
             4.00,350.00 115.00,350.00 115.00,350.00
             126.90,349.98 131.17,344.30 141.00,338.19
             141.00,338.19 193.00,304.00 193.00,304.00
             193.00,304.00 182.00,285.00 182.00,285.00
             182.00,285.00 135.00,314.69 135.00,314.69
             125.25,320.97 120.03,326.98 108.00,327.00
             108.00,327.00 4.00,327.00 4.00,327.00 Z
           M 330.00,285.00
           C 330.00,285.00 319.00,303.00 319.00,303.00
             323.76,308.62 331.77,312.68 338.00,316.69
             338.00,316.69 372.00,338.69 372.00,338.69
             381.61,344.88 385.21,349.98 397.00,350.00
             397.00,350.00 508.00,350.00 508.00,350.00
             508.00,350.00 508.00,327.00 508.00,327.00
             508.00,327.00 404.00,327.00 404.00,327.00
             392.21,326.98 386.50,320.97 377.00,314.67
             377.00,314.67 330.00,285.00 330.00,285.00 Z
           M 125.00,501.00
           C 125.00,501.00 146.00,507.00 146.00,507.00
             146.00,507.00 159.42,463.00 159.42,463.00
             159.42,463.00 176.28,407.00 176.28,407.00
             176.28,407.00 184.13,381.00 184.13,381.00
             186.15,376.16 190.40,372.68 193.99,369.00
             193.99,369.00 209.00,353.00 209.00,353.00
             211.23,350.74 217.97,343.73 218.85,341.00
             220.09,337.12 213.49,330.95 211.00,328.02
             209.99,326.83 208.39,324.77 206.83,324.54
             205.72,324.03 204.99,324.25 203.99,324.54
             200.94,326.24 194.72,334.11 191.96,337.00
             191.96,337.00 166.51,364.00 166.51,364.00
             163.98,367.55 162.97,372.80 161.66,377.00
             161.66,377.00 152.98,406.00 152.98,406.00
             152.98,406.00 135.28,465.00 135.28,465.00
             135.28,465.00 125.00,501.00 125.00,501.00 Z
           M 366.00,507.00
           C 366.00,507.00 387.00,501.00 387.00,501.00
             387.00,501.00 376.72,465.00 376.72,465.00
             376.72,465.00 359.02,406.00 359.02,406.00
             359.02,406.00 350.34,377.00 350.34,377.00
             349.03,372.80 348.02,367.55 345.49,364.00
             345.49,364.00 320.04,337.00 320.04,337.00
             317.28,334.11 311.06,326.24 308.01,324.54
             307.01,324.25 306.28,324.03 305.17,324.54
             303.61,324.77 302.01,326.83 301.00,328.02
             298.53,330.92 291.88,337.15 293.16,341.00
             293.88,343.16 300.20,350.08 302.04,352.00
             302.04,352.00 318.01,369.00 318.01,369.00
             321.60,372.68 325.85,376.16 327.87,381.00
             327.87,381.00 335.72,407.00 335.72,407.00
             335.72,407.00 352.58,463.00 352.58,463.00
             352.58,463.00 366.00,507.00 366.00,507.00 Z" />
</svg>
