<?xml version="1.0" encoding="UTF-8" standalone="no"?>
<!DOCTYPE svg PUBLIC "-//W3C//DTD SVG 20010904//EN"
              "http://www.w3.org/TR/2001/REC-SVG-20010904/DTD/svg10.dtd">

<svg xmlns="http://www.w3.org/2000/svg"
     width="135.45mm" height="135.45mm"
     viewBox="0 0 512 512">
  <path id="Selection"
        fill="none" stroke="black" stroke-width="1"
        d="M 96.00,9.00
           C 96.00,9.00 124.98,106.00 124.98,106.00
             124.98,106.00 133.66,135.00 133.66,135.00
             133.66,135.00 138.22,148.00 138.22,148.00
             138.22,148.00 153.91,165.00 153.91,165.00
             153.91,165.00 189.00,202.00 189.00,202.00
             189.00,202.00 209.00,182.00 209.00,182.00
             206.43,176.56 203.18,174.42 199.28,170.00
             199.28,170.00 184.04,154.00 184.04,154.00
             184.04,154.00 174.99,144.00 174.99,144.00
             171.60,140.53 165.43,135.13 163.42,131.00
             163.42,131.00 153.58,99.00 153.58,99.00
             153.58,99.00 134.66,36.00 134.66,36.00
             134.66,36.00 127.86,13.00 127.86,13.00
             127.26,10.91 125.38,3.96 124.07,2.68
             122.08,0.63 118.32,2.04 116.00,2.68
             116.00,2.68 96.00,9.00 96.00,9.00 Z
           M 322.00,202.00
           C 322.00,202.00 358.17,165.00 358.17,165.00
             358.17,165.00 373.92,148.00 373.92,148.00
             373.92,148.00 378.34,135.00 378.34,135.00
             378.34,135.00 387.02,106.00 387.02,106.00
             387.02,106.00 416.00,9.00 416.00,9.00
             416.00,9.00 396.00,2.72 396.00,2.72
             394.02,2.14 390.45,0.92 388.56,2.11
             386.75,3.25 385.35,8.88 384.72,11.00
             384.72,11.00 377.66,35.00 377.66,35.00
             377.66,35.00 358.42,99.00 358.42,99.00
             358.42,99.00 348.07,132.00 348.07,132.00
             346.10,135.39 340.02,140.88 337.04,144.00
             337.04,144.00 328.96,153.00 328.96,153.00
             328.96,153.00 314.42,168.00 314.42,168.00
             312.45,170.28 304.88,177.89 304.34,179.96
             303.56,182.92 307.14,185.31 309.00,187.09
             316.05,193.80 316.32,194.90 322.00,202.00 Z
           M 177.00,243.00
           C 177.04,229.02 180.25,226.05 183.00,214.00
             183.00,214.00 143.00,193.25 143.00,193.25
             143.00,193.25 122.50,181.61 122.50,181.61
             122.50,181.61 116.58,168.00 116.58,168.00
             116.58,168.00 105.31,137.00 105.31,137.00
             105.31,137.00 83.05,76.00 83.05,76.00
             83.05,76.00 67.00,32.00 67.00,32.00
             67.00,32.00 48.00,38.69 48.00,38.69
             46.06,39.39 42.16,40.64 41.12,42.50
             39.56,45.29 45.10,57.61 46.31,61.00
             46.31,61.00 64.81,112.00 64.81,112.00
             64.81,112.00 88.19,176.00 88.19,176.00
             88.19,176.00 98.07,201.79 98.07,201.79
             100.23,204.87 113.83,211.44 118.00,213.69
             118.00,213.69 156.00,233.25 156.00,233.25
             162.85,236.70 169.35,241.57 177.00,243.00 Z
           M 445.00,32.00
           C 445.00,32.00 428.95,76.00 428.95,76.00
             428.95,76.00 406.69,137.00 406.69,137.00
             406.69,137.00 395.42,168.00 395.42,168.00
             395.42,168.00 389.50,181.61 389.50,181.61
             389.50,181.61 369.00,193.25 369.00,193.25
             369.00,193.25 329.00,214.00 329.00,214.00
             331.75,226.05 334.96,229.02 335.00,243.00
             342.65,241.57 349.15,236.70 356.00,233.25
             356.00,233.25 394.00,213.69 394.00,213.69
             398.17,211.44 411.77,204.87 413.93,201.79
             413.93,201.79 425.69,171.00 425.69,171.00
             425.69,171.00 447.58,111.00 447.58,111.00
             447.58,111.00 466.05,60.00 466.05,60.00
             467.27,56.67 472.42,45.28 470.88,42.42
             469.76,40.35 466.09,39.39 464.00,38.66
             464.00,38.66 445.00,32.00 445.00,32.00 Z
           M 212.00,179.00
           C 221.62,174.37 223.89,172.02 235.00,168.72
             251.16,163.92 269.41,165.14 285.00,171.45
             285.00,171.45 300.00,179.00 300.00,179.00
             300.81,175.69 300.96,174.41 301.00,171.00
             301.10,161.97 299.90,156.10 295.74,148.00
             286.91,130.79 270.66,120.06 251.00,122.17
             225.89,124.87 205.06,154.56 212.00,179.00 Z
           M 254.00,196.46
           C 249.61,197.03 246.30,197.12 242.00,198.52
             221.33,205.23 207.88,224.50 207.04,246.00
             206.40,262.54 218.40,282.11 227.88,295.00
             227.88,295.00 247.28,319.00 247.28,319.00
             249.11,321.07 253.07,325.80 256.00,325.80
             258.93,325.80 262.89,321.07 264.72,319.00
             264.72,319.00 282.63,297.00 282.63,297.00
             292.63,283.61 305.63,263.33 304.96,246.00
             303.90,218.81 282.06,195.04 254.00,196.46 Z
           M 1.00,324.00
           C 1.00,324.00 1.00,353.00 1.00,353.00
             1.00,353.00 117.00,353.00 117.00,353.00
             119.18,353.00 121.92,353.09 124.00,352.49
             127.12,351.60 132.11,347.91 135.00,346.00
             135.00,346.00 153.00,334.34 153.00,334.34
             153.00,334.34 185.00,313.67 185.00,313.67
             187.45,312.03 195.60,307.49 196.13,304.79
             196.58,302.48 193.98,298.94 192.81,297.00
             189.28,291.18 186.69,286.26 184.00,280.00
             184.00,280.00 163.00,292.67 163.00,292.67
             163.00,292.67 134.00,311.34 134.00,311.34
             134.00,311.34 114.00,323.49 114.00,323.49
             114.00,323.49 107.00,324.00 107.00,324.00
             107.00,324.00 1.00,324.00 1.00,324.00 Z
           M 328.00,280.00
           C 328.00,280.00 315.00,306.00 315.00,306.00
             315.00,306.00 329.00,314.95 329.00,314.95
             329.00,314.95 369.00,340.81 369.00,340.81
             369.00,340.81 388.00,352.49 388.00,352.49
             388.00,352.49 395.00,353.00 395.00,353.00
             395.00,353.00 511.00,353.00 511.00,353.00
             511.00,353.00 511.00,324.00 511.00,324.00
             511.00,324.00 405.00,324.00 405.00,324.00
             405.00,324.00 398.00,323.49 398.00,323.49
             398.00,323.49 378.00,311.33 378.00,311.33
             378.00,311.33 347.00,291.31 347.00,291.31
             347.00,291.31 328.00,280.00 328.00,280.00 Z
           M 149.00,511.00
           C 149.00,511.00 173.28,429.00 173.28,429.00
             173.28,429.00 182.14,399.00 182.14,399.00
             183.24,395.18 186.44,383.86 188.08,381.00
             190.59,376.64 208.40,357.85 213.04,353.00
             215.14,350.80 222.23,344.14 223.46,342.00
             223.78,340.90 223.96,340.21 223.46,339.00
             223.21,337.07 213.20,325.36 211.20,323.02
             209.94,321.55 208.15,319.20 206.00,319.20
             203.35,319.20 198.88,325.06 196.99,327.00
             196.99,327.00 172.28,353.00 172.28,353.00
             169.84,355.77 163.59,362.37 162.09,365.00
             162.09,365.00 151.28,400.00 151.28,400.00
             151.28,400.00 132.34,463.00 132.34,463.00
             132.34,463.00 124.28,490.00 124.28,490.00
             123.49,492.63 120.97,499.27 121.77,501.73
             122.64,504.38 126.64,505.17 129.00,505.86
             135.52,507.75 142.23,510.39 149.00,511.00 Z
           M 363.00,511.00
           C 369.77,510.39 376.48,507.75 383.00,505.86
             385.36,505.17 389.36,504.38 390.23,501.73
             391.03,499.27 388.51,492.63 387.72,490.00
             387.72,490.00 379.66,463.00 379.66,463.00
             379.66,463.00 361.42,402.00 361.42,402.00
             361.42,402.00 349.91,365.00 349.91,365.00
             348.65,362.78 341.06,354.30 338.91,352.00
             338.91,352.00 315.04,327.00 315.04,327.00
             313.05,324.92 308.90,319.20 306.02,319.20
             303.85,319.20 302.08,321.53 300.80,323.02
             298.71,325.47 288.92,336.83 288.67,339.00
             288.19,340.19 288.38,340.92 288.67,342.00
             289.98,344.35 296.79,350.75 298.99,353.00
             303.59,357.72 321.41,376.59 323.92,381.00
             325.59,383.93 328.75,395.13 329.86,399.00
             329.86,399.00 338.72,429.00 338.72,429.00
             338.72,429.00 363.00,511.00 363.00,511.00 Z" />
</svg>
