<?xml version="1.0" encoding="UTF-8" standalone="no"?>
<!DOCTYPE svg PUBLIC "-//W3C//DTD SVG 20010904//EN"
              "http://www.w3.org/TR/2001/REC-SVG-20010904/DTD/svg10.dtd">

<svg xmlns="http://www.w3.org/2000/svg"
     width="135.45mm" height="135.45mm"
     viewBox="0 0 512 512">
  <path id="Selection"
        fill="none" stroke="black" stroke-width="1"
        d="M 162.00,110.00
           C 203.99,87.81 249.16,79.09 296.00,89.42
             309.82,92.47 322.12,96.40 335.00,102.31
             335.00,102.31 349.00,109.00 349.00,109.00
             348.15,100.76 342.74,89.98 338.31,83.00
             336.36,79.93 330.94,73.57 331.74,70.00
             332.41,67.04 337.76,62.24 340.00,60.00
             340.00,60.00 360.00,40.00 360.00,40.00
             362.48,37.52 369.60,31.74 368.66,28.00
             367.97,25.21 357.60,15.60 355.00,13.00
             348.46,17.68 331.75,35.25 325.00,42.00
             322.36,44.64 315.30,52.52 312.00,53.18
             309.35,53.71 306.26,51.52 304.00,50.31
             299.80,48.06 294.43,45.31 290.00,43.69
             275.58,38.44 260.25,36.69 245.00,38.17
             235.53,39.09 224.64,42.35 216.00,46.31
             212.60,47.87 204.33,53.08 201.00,52.27
             197.99,51.54 193.28,46.28 191.00,44.00
             191.00,44.00 170.00,23.00 170.00,23.00
             167.99,20.99 162.47,14.95 160.00,14.34
             156.30,13.41 146.28,23.78 144.74,27.00
             142.66,31.38 149.23,36.23 152.00,39.00
             152.00,39.00 172.00,59.00 172.00,59.00
             174.08,61.08 179.97,66.54 180.83,69.00
             182.08,72.57 177.01,77.94 175.05,81.00
             167.93,92.18 166.10,97.71 162.00,110.00 Z
           M 36.00,85.00
           C 36.00,85.00 36.00,108.00 36.00,108.00
             36.00,108.00 80.00,108.00 80.00,108.00
             82.63,108.01 85.60,107.81 88.00,109.02
             92.02,111.06 104.35,126.61 108.13,131.00
             110.32,133.55 115.61,140.80 119.00,140.80
             121.19,140.81 123.43,138.49 125.00,137.15
             125.00,137.15 136.00,128.00 136.00,128.00
             136.00,128.00 112.28,100.00 112.28,100.00
             112.28,100.00 99.99,87.02 99.99,87.02
             99.99,87.02 84.00,85.00 84.00,85.00
             84.00,85.00 36.00,85.00 36.00,85.00 Z
           M 377.00,129.00
           C 380.93,131.73 384.46,134.80 388.00,138.02
             389.52,139.40 391.75,141.80 393.96,141.80
             396.95,141.80 403.38,133.39 405.42,131.00
             409.42,126.32 421.51,111.27 426.00,109.02
             428.43,107.81 431.35,108.01 434.00,108.00
             434.00,108.00 478.00,108.00 478.00,108.00
             478.00,108.00 478.00,85.00 478.00,85.00
             478.00,85.00 430.00,85.00 430.00,85.00
             430.00,85.00 414.17,86.60 414.17,86.60
             414.17,86.60 402.13,99.00 402.13,99.00
             402.13,99.00 377.00,129.00 377.00,129.00 Z
           M 25.00,471.00
           C 25.00,471.00 25.00,494.00 25.00,494.00
             25.00,494.00 77.00,494.00 77.00,494.00
             86.57,493.98 85.33,493.15 91.14,480.00
             91.14,480.00 107.23,443.00 107.23,443.00
             109.13,438.84 112.77,426.63 118.01,426.63
             122.01,426.63 126.17,433.09 128.37,436.00
             134.99,444.75 142.72,453.51 151.00,460.71
             172.74,479.62 208.72,498.66 238.00,500.00
             238.00,500.00 238.00,124.00 238.00,124.00
             221.05,124.78 201.06,132.22 186.00,139.75
             126.03,169.74 92.47,232.81 87.91,298.00
             87.91,298.00 87.00,308.00 87.00,308.00
             86.81,324.68 89.48,347.86 93.73,364.00
             93.73,364.00 100.00,384.00 100.00,384.00
             101.01,386.97 102.81,390.93 102.71,394.00
             102.60,397.82 97.22,408.79 95.42,413.00
             95.42,413.00 77.58,454.00 77.58,454.00
             73.09,464.52 72.78,470.97 60.00,471.00
             60.00,471.00 25.00,471.00 25.00,471.00 Z
           M 275.00,124.00
           C 275.00,124.00 275.00,500.00 275.00,500.00
             305.30,497.54 340.99,479.41 363.00,458.91
             370.26,452.15 377.06,444.87 383.11,437.00
             385.11,434.41 390.49,426.15 393.09,425.17
             399.44,422.77 403.98,437.75 405.86,442.00
             405.86,442.00 422.14,479.00 422.14,479.00
             428.53,493.46 426.87,493.98 437.00,494.00
             437.00,494.00 488.00,494.00 488.00,494.00
             488.00,494.00 488.00,471.00 488.00,471.00
             488.00,471.00 453.00,471.00 453.00,471.00
             442.14,470.98 442.39,468.92 436.00,454.00
             436.00,454.00 417.28,411.00 417.28,411.00
             415.44,406.73 410.26,396.08 410.20,392.00
             410.20,392.00 417.58,367.00 417.58,367.00
             421.23,353.86 424.84,331.55 425.00,318.00
             425.87,243.59 390.34,168.44 320.00,136.70
             306.04,130.40 290.34,125.25 275.00,124.00 Z
           M 161.00,204.29
           C 179.58,202.53 196.55,210.38 205.96,227.00
             218.19,248.61 208.56,278.71 186.00,289.10
             179.17,292.24 172.42,293.08 165.00,293.00
             134.14,292.65 113.80,260.31 124.93,232.00
             131.22,215.99 144.53,207.01 161.00,204.29 Z
           M 341.00,204.29
           C 358.44,202.64 374.06,209.19 384.09,224.00
             392.24,236.04 393.38,254.96 387.02,268.00
             384.35,273.48 381.31,276.77 377.00,280.99
             373.42,284.49 370.60,286.98 366.00,289.10
             359.17,292.24 352.42,293.08 345.00,293.00
             314.02,292.65 293.75,260.42 304.93,232.00
             311.22,215.99 324.53,207.01 341.00,204.29 Z
           M 50.00,294.00
           C 50.00,294.00 39.00,302.45 39.00,302.45
             39.00,302.45 28.00,301.72 28.00,301.72
             28.00,301.72 7.00,299.00 7.00,299.00
             7.00,299.00 4.00,322.00 4.00,322.00
             4.00,322.00 34.00,325.42 34.00,325.42
             36.63,325.79 45.70,327.30 47.69,326.39
             50.36,325.16 49.98,321.45 50.00,319.00
             50.00,319.00 50.00,294.00 50.00,294.00 Z
           M 462.00,295.00
           C 462.00,295.00 462.00,320.00 462.00,320.00
             462.17,328.74 465.37,327.00 475.00,325.85
             475.00,325.85 508.00,322.00 508.00,322.00
             508.00,322.00 505.00,299.00 505.00,299.00
             505.00,299.00 484.00,301.72 484.00,301.72
             484.00,301.72 473.00,302.45 473.00,302.45
             473.00,302.45 462.00,295.00 462.00,295.00 Z
           M 159.00,333.30
           C 168.27,332.38 177.46,332.85 186.00,336.89
             190.63,339.08 196.29,343.24 199.70,347.04
             226.03,376.41 204.67,422.89 165.00,421.99
             159.61,421.86 153.99,420.58 149.00,418.55
             116.63,405.37 113.10,361.82 140.00,341.24
             146.06,336.61 151.60,334.70 159.00,333.30 Z
           M 339.00,333.30
           C 348.27,332.38 357.46,332.85 366.00,336.89
             370.63,339.08 376.29,343.24 379.70,347.04
             406.03,376.41 384.67,422.89 345.00,421.99
             339.61,421.86 333.99,420.58 329.00,418.55
             297.97,405.92 291.73,362.71 320.00,341.24
             326.11,336.60 331.55,334.71 339.00,333.30 Z" />
</svg>
