<?xml version="1.0" encoding="UTF-8" standalone="no"?>
<!DOCTYPE svg PUBLIC "-//W3C//DTD SVG 20010904//EN"
              "http://www.w3.org/TR/2001/REC-SVG-20010904/DTD/svg10.dtd">

<svg xmlns="http://www.w3.org/2000/svg"
     width="135.45mm" height="135.45mm"
     viewBox="0 0 512 512">
  <path id="Selection"
        fill="none" stroke="black" stroke-width="1"
        d="M 178.00,70.00
           C 165.87,83.33 159.29,100.51 156.00,118.00
             156.00,118.00 177.00,107.26 177.00,107.26
             184.68,103.54 198.72,98.42 207.00,96.15
             242.66,86.39 279.91,87.04 315.00,99.08
             335.26,106.03 348.84,115.36 356.00,118.00
             354.45,107.00 350.42,95.79 345.22,86.00
             343.61,82.96 336.75,73.49 336.95,71.00
             337.18,68.17 342.00,64.00 344.00,62.00
             344.00,62.00 366.00,40.00 366.00,40.00
             368.48,37.52 375.60,31.74 374.66,28.00
             374.13,25.88 370.58,22.59 369.00,21.00
             369.00,21.00 355.00,7.00 355.00,7.00
             348.46,11.68 331.75,29.25 325.00,36.00
             322.90,38.10 314.20,47.18 312.28,48.05
             309.71,49.22 305.38,45.97 303.00,44.76
             294.59,40.47 290.21,38.67 281.00,36.37
             264.04,32.15 244.84,32.54 228.00,37.15
             222.13,38.76 216.46,41.07 211.00,43.76
             208.80,44.84 204.35,47.52 202.00,47.17
             199.00,46.71 194.21,41.21 192.00,39.00
             192.00,39.00 170.00,17.00 170.00,17.00
             167.52,14.52 161.74,7.40 158.00,8.34
             155.63,8.93 150.88,14.12 149.00,16.00
             146.55,18.45 138.20,25.78 138.20,29.00
             138.20,32.16 145.67,38.67 148.00,41.00
             154.75,47.75 171.46,65.32 178.00,70.00 Z
           M 32.00,81.00
           C 32.00,81.00 32.00,112.00 32.00,112.00
             32.00,112.00 78.00,112.00 78.00,112.00
             89.23,112.02 90.15,116.68 97.27,125.00
             97.27,125.00 118.00,149.00 118.00,149.00
             118.00,149.00 142.00,129.00 142.00,129.00
             142.00,129.00 114.58,96.00 114.58,96.00
             114.58,96.00 101.72,82.57 101.72,82.57
             101.72,82.57 85.00,81.00 85.00,81.00
             85.00,81.00 32.00,81.00 32.00,81.00 Z
           M 371.00,128.00
           C 374.92,133.22 379.25,135.88 384.00,140.17
             388.42,144.16 390.09,147.26 396.00,149.00
             396.00,149.00 414.58,127.00 414.58,127.00
             417.83,123.18 424.64,114.20 429.00,112.60
             430.93,111.89 433.91,112.00 436.00,112.00
             436.00,112.00 482.00,112.00 482.00,112.00
             482.00,112.00 482.00,81.00 482.00,81.00
             482.00,81.00 427.00,81.00 427.00,81.00
             427.00,81.00 411.09,83.02 411.09,83.02
             411.09,83.02 398.13,97.00 398.13,97.00
             398.13,97.00 371.00,128.00 371.00,128.00 Z
           M 21.00,467.00
           C 21.00,467.00 21.00,498.00 21.00,498.00
             21.00,498.00 80.00,498.00 80.00,498.00
             80.00,498.00 87.51,496.98 87.51,496.98
             87.51,496.98 95.14,482.00 95.14,482.00
             95.14,482.00 109.42,449.00 109.42,449.00
             109.42,449.00 117.00,430.00 117.00,430.00
             121.94,433.86 125.12,439.19 129.08,444.00
             134.78,450.91 141.35,457.84 148.00,463.83
             175.80,488.85 205.53,500.19 242.00,505.00
             242.00,505.00 242.00,119.00 242.00,119.00
             182.99,123.78 131.37,163.80 105.27,216.00
             89.47,247.60 82.59,282.85 83.00,318.00
             83.16,331.23 86.50,354.19 90.01,367.00
             90.01,367.00 98.10,394.00 98.10,394.00
             98.01,396.87 94.46,403.95 93.15,407.00
             93.15,407.00 81.42,434.00 81.42,434.00
             81.42,434.00 71.85,456.00 71.85,456.00
             70.51,459.12 68.79,464.21 65.79,465.98
             63.71,467.20 60.37,467.00 58.00,467.00
             58.00,467.00 21.00,467.00 21.00,467.00 Z
           M 271.00,119.00
           C 271.00,119.00 271.00,505.00 271.00,505.00
             283.46,502.77 294.80,501.56 307.00,497.31
             343.69,484.52 373.39,460.12 395.00,428.00
             395.00,428.00 415.42,475.00 415.42,475.00
             415.42,475.00 425.00,498.00 425.00,498.00
             425.00,498.00 492.00,498.00 492.00,498.00
             492.00,498.00 492.00,467.00 492.00,467.00
             492.00,467.00 455.00,467.00 455.00,467.00
             452.74,467.00 449.32,467.22 447.39,465.98
             445.05,464.47 443.41,459.58 442.23,457.00
             442.23,457.00 432.58,435.00 432.58,435.00
             432.58,435.00 420.00,406.00 420.00,406.00
             418.69,402.93 414.82,394.87 414.71,392.00
             414.71,392.00 421.85,368.00 421.85,368.00
             425.34,355.09 428.84,333.28 429.00,320.00
             429.68,261.50 413.11,209.11 371.00,167.00
             358.35,154.35 344.05,143.40 328.00,135.37
             308.75,125.74 292.13,121.79 271.00,119.00 Z
           M 163.00,208.29
           C 200.60,204.75 221.80,251.32 194.71,277.56
             191.04,281.11 186.77,284.09 182.00,285.93
             176.78,287.95 170.60,289.18 165.00,288.96
             133.63,287.73 115.56,252.36 133.10,226.00
             140.46,214.95 150.38,210.38 163.00,208.29 Z
           M 343.00,208.29
           C 380.33,204.78 401.56,250.32 374.98,276.99
             370.87,281.11 367.47,283.81 362.00,285.93
             356.78,287.95 350.60,289.18 345.00,288.96
             314.08,287.75 295.18,252.94 313.10,226.00
             320.46,214.95 330.38,210.38 343.00,208.29 Z
           M 54.03,285.00
           C 54.03,285.00 38.00,297.86 38.00,297.86
             38.00,297.86 26.00,297.15 26.00,297.15
             26.00,297.15 3.00,295.00 3.00,295.00
             3.00,295.00 0.17,319.00 0.17,319.00
             -0.47,327.32 5.62,326.24 12.00,326.95
             12.00,326.95 38.00,330.28 38.00,330.28
             41.32,330.55 46.80,331.67 49.94,330.28
             53.81,328.85 53.93,325.59 54.03,322.00
             54.03,322.00 54.03,302.00 54.03,302.00
             54.47,296.40 56.15,290.42 54.03,285.00 Z
           M 457.00,285.00
           C 457.00,285.00 458.00,303.00 458.00,303.00
             458.00,303.00 458.00,320.00 458.00,320.00
             458.01,323.18 457.62,327.13 460.31,329.40
             463.17,331.80 468.59,330.89 472.00,330.42
             472.00,330.42 498.00,327.15 498.00,327.15
             504.79,326.34 512.52,327.89 511.83,319.00
             511.83,319.00 509.00,295.00 509.00,295.00
             509.00,295.00 486.00,297.15 486.00,297.15
             486.00,297.15 474.00,297.86 474.00,297.86
             474.00,297.86 457.00,285.00 457.00,285.00 Z
           M 161.00,337.30
           C 168.15,336.59 174.23,337.00 181.00,339.62
             216.49,353.37 215.12,403.74 179.00,415.64
             174.83,417.02 169.39,418.16 165.00,417.91
             127.76,415.74 112.46,370.00 141.09,346.02
             147.20,340.90 153.28,338.76 161.00,337.30 Z
           M 341.00,337.30
           C 348.15,336.59 354.23,337.00 361.00,339.62
             396.49,353.37 395.12,403.74 359.00,415.64
             354.83,417.02 349.39,418.16 345.00,417.91
             309.88,415.86 292.78,373.18 318.29,348.44
             325.09,341.84 331.84,339.03 341.00,337.30 Z" />
</svg>
