<?xml version="1.0" encoding="UTF-8" standalone="no"?>
<!DOCTYPE svg PUBLIC "-//W3C//DTD SVG 20010904//EN"
              "http://www.w3.org/TR/2001/REC-SVG-20010904/DTD/svg10.dtd">

<svg xmlns="http://www.w3.org/2000/svg"
     width="135.45mm" height="135.45mm"
     viewBox="0 0 512 512">
  <path id="Selection"
        fill="none" stroke="black" stroke-width="1"
        d="M 178.00,70.00
           C 171.46,65.32 154.75,47.75 148.00,41.00
             145.67,38.67 138.20,32.16 138.20,29.00
             138.20,25.78 146.55,18.45 149.00,16.00
             150.88,14.12 155.63,8.93 158.00,8.34
             161.74,7.40 167.52,14.52 170.00,17.00
             170.00,17.00 192.00,39.00 192.00,39.00
             194.21,41.21 199.00,46.71 202.00,47.17
             204.35,47.52 208.80,44.84 211.00,43.76
             216.46,41.07 222.13,38.76 228.00,37.15
             244.84,32.54 264.04,32.15 281.00,36.37
             290.21,38.67 294.59,40.47 303.00,44.76
             305.38,45.97 309.71,49.22 312.28,48.05
             314.20,47.18 322.90,38.10 325.00,36.00
             331.75,29.25 348.46,11.68 355.00,7.00
             355.00,7.00 369.00,21.00 369.00,21.00
             370.58,22.59 374.13,25.88 374.66,28.00
             375.60,31.74 368.48,37.52 366.00,40.00
             366.00,40.00 344.00,62.00 344.00,62.00
             342.00,64.00 337.18,68.17 336.95,71.00
             336.75,73.49 343.61,82.96 345.22,86.00
             350.42,95.79 354.45,107.00 356.00,118.00
             348.84,115.36 335.26,106.03 315.00,99.08
             279.91,87.04 242.66,86.39 207.00,96.15
             198.72,98.42 184.68,103.54 177.00,107.26
             177.00,107.26 156.00,118.00 156.00,118.00
             159.29,100.51 165.87,83.33 178.00,70.00 Z
           M 32.00,81.00
           C 32.00,81.00 85.00,81.00 85.00,81.00
             85.00,81.00 101.72,82.57 101.72,82.57
             101.72,82.57 114.58,96.00 114.58,96.00
             114.58,96.00 142.00,129.00 142.00,129.00
             142.00,129.00 118.00,149.00 118.00,149.00
             118.00,149.00 97.27,125.00 97.27,125.00
             90.15,116.68 89.23,112.02 78.00,112.00
             78.00,112.00 32.00,112.00 32.00,112.00
             32.00,112.00 32.00,81.00 32.00,81.00 Z
           M 371.00,128.00
           C 371.00,128.00 398.13,97.00 398.13,97.00
             398.13,97.00 411.09,83.02 411.09,83.02
             411.09,83.02 427.00,81.00 427.00,81.00
             427.00,81.00 482.00,81.00 482.00,81.00
             482.00,81.00 482.00,112.00 482.00,112.00
             482.00,112.00 436.00,112.00 436.00,112.00
             433.91,112.00 430.93,111.89 429.00,112.60
             424.64,114.20 417.83,123.18 414.58,127.00
             414.58,127.00 396.00,149.00 396.00,149.00
             390.09,147.26 388.42,144.16 384.00,140.17
             379.25,135.88 374.92,133.22 371.00,128.00 Z
           M 21.00,467.00
           C 21.00,467.00 58.00,467.00 58.00,467.00
             60.37,467.00 63.71,467.20 65.79,465.98
             68.79,464.21 70.51,459.12 71.85,456.00
             71.85,456.00 81.42,434.00 81.42,434.00
             81.42,434.00 93.15,407.00 93.15,407.00
             94.46,403.95 98.01,396.87 98.10,394.00
             98.10,394.00 90.01,367.00 90.01,367.00
             86.50,354.19 83.16,331.23 83.00,318.00
             82.59,282.85 89.47,247.60 105.27,216.00
             131.37,163.80 182.99,123.78 242.00,119.00
             242.00,119.00 242.00,505.00 242.00,505.00
             205.53,500.19 175.80,488.85 148.00,463.83
             141.35,457.84 134.78,450.91 129.08,444.00
             125.12,439.19 121.94,433.86 117.00,430.00
             117.00,430.00 109.42,449.00 109.42,449.00
             109.42,449.00 95.14,482.00 95.14,482.00
             95.14,482.00 87.51,496.98 87.51,496.98
             87.51,496.98 80.00,498.00 80.00,498.00
             80.00,498.00 21.00,498.00 21.00,498.00
             21.00,498.00 21.00,467.00 21.00,467.00 Z
           M 271.00,119.00
           C 292.13,121.79 308.75,125.74 328.00,135.37
             344.05,143.40 358.35,154.35 371.00,167.00
             413.11,209.11 429.68,261.50 429.00,320.00
             428.84,333.28 425.34,355.09 421.85,368.00
             421.85,368.00 414.71,392.00 414.71,392.00
             414.82,394.87 418.69,402.93 420.00,406.00
             420.00,406.00 432.58,435.00 432.58,435.00
             432.58,435.00 442.23,457.00 442.23,457.00
             443.41,459.58 445.05,464.47 447.39,465.98
             449.32,467.22 452.74,467.00 455.00,467.00
             455.00,467.00 492.00,467.00 492.00,467.00
             492.00,467.00 492.00,498.00 492.00,498.00
             492.00,498.00 425.00,498.00 425.00,498.00
             425.00,498.00 415.42,475.00 415.42,475.00
             415.42,475.00 395.00,428.00 395.00,428.00
             373.39,460.12 343.69,484.52 307.00,497.31
             294.80,501.56 283.46,502.77 271.00,505.00
             271.00,505.00 271.00,119.00 271.00,119.00 Z
           M 54.03,285.00
           C 56.15,290.42 54.47,296.40 54.03,302.00
             54.03,302.00 54.03,322.00 54.03,322.00
             53.93,325.59 53.81,328.85 49.94,330.28
             46.80,331.67 41.32,330.55 38.00,330.28
             38.00,330.28 12.00,326.95 12.00,326.95
             5.62,326.24 -0.47,327.32 0.17,319.00
             0.17,319.00 3.00,295.00 3.00,295.00
             3.00,295.00 26.00,297.15 26.00,297.15
             26.00,297.15 38.00,297.86 38.00,297.86
             38.00,297.86 54.03,285.00 54.03,285.00 Z
           M 457.00,285.00
           C 457.00,285.00 474.00,297.86 474.00,297.86
             474.00,297.86 486.00,297.15 486.00,297.15
             486.00,297.15 509.00,295.00 509.00,295.00
             509.00,295.00 511.83,319.00 511.83,319.00
             512.52,327.89 504.79,326.34 498.00,327.15
             498.00,327.15 472.00,330.42 472.00,330.42
             468.59,330.89 463.17,331.80 460.31,329.40
             457.62,327.13 458.01,323.18 458.00,320.00
             458.00,320.00 458.00,303.00 458.00,303.00
             458.00,303.00 457.00,285.00 457.00,285.00 Z" />
</svg>
