<?xml version="1.0" encoding="UTF-8" standalone="no"?>
<!DOCTYPE svg PUBLIC "-//W3C//DTD SVG 20010904//EN"
              "http://www.w3.org/TR/2001/REC-SVG-20010904/DTD/svg10.dtd">

<svg xmlns="http://www.w3.org/2000/svg"
     width="135.45mm" height="135.45mm"
     viewBox="0 0 512 512">
  <path id="Selection"
        fill="none" stroke="black" stroke-width="1"
        d="M 144.00,4.00
           C 144.00,4.00 144.00,87.00 144.00,87.00
             144.00,88.95 143.88,92.05 144.60,93.83
             145.90,97.02 154.97,104.14 158.00,106.73
             158.00,106.73 189.00,133.27 189.00,133.27
             192.00,135.84 200.67,142.70 201.83,146.00
             203.96,152.02 195.54,151.99 192.00,152.00
             192.00,152.00 166.00,152.00 166.00,152.00
             166.00,152.00 78.00,152.00 78.00,152.00
             66.46,152.14 53.82,155.42 45.09,163.32
             41.24,166.81 38.07,172.16 36.23,177.00
             26.89,201.55 46.95,225.42 72.00,225.99
             80.36,226.18 87.91,223.95 96.00,222.21
             96.00,222.21 135.00,213.58 135.00,213.58
             135.00,213.58 207.00,198.00 207.00,198.00
             207.00,198.00 207.00,126.00 207.00,126.00
             206.99,123.40 207.19,120.38 205.98,118.01
             204.54,115.21 200.45,112.12 198.00,110.00
             198.00,110.00 181.00,95.42 181.00,95.42
             172.66,88.32 168.02,87.26 168.00,76.00
             168.00,76.00 168.00,4.00 168.00,4.00
             168.00,4.00 144.00,4.00 144.00,4.00 Z
           M 344.00,4.00
           C 344.00,4.00 344.00,76.00 344.00,76.00
             343.99,78.60 344.19,81.62 342.98,83.99
             341.54,86.79 337.45,89.88 335.00,92.00
             335.00,92.00 318.00,106.58 318.00,106.58
             309.66,113.68 305.02,114.74 305.00,126.00
             305.00,126.00 305.00,198.00 305.00,198.00
             305.00,198.00 340.00,205.35 340.00,205.35
             340.00,205.35 400.00,218.65 400.00,218.65
             400.00,218.65 437.00,225.99 437.00,225.99
             469.44,226.72 491.28,192.42 469.48,166.04
             466.55,162.49 462.10,159.45 458.00,157.37
             444.05,150.30 425.40,152.00 410.00,152.00
             410.00,152.00 320.00,152.00 320.00,152.00
             316.90,151.99 311.62,152.40 310.17,148.85
             309.24,146.58 310.76,144.66 312.15,143.01
             312.15,143.01 325.00,131.58 325.00,131.58
             325.00,131.58 356.00,105.00 356.00,105.00
             363.86,98.21 367.98,97.64 368.00,87.00
             368.00,87.00 368.00,4.00 368.00,4.00
             368.00,4.00 344.00,4.00 344.00,4.00 Z
           M 244.00,72.00
           C 244.00,72.00 256.00,71.03 256.00,71.03
             256.00,71.03 268.00,72.00 268.00,72.00
             267.90,67.42 267.41,61.90 264.35,58.22
             259.35,52.21 249.96,53.41 246.14,60.04
             244.13,63.53 244.04,68.09 244.00,72.00 Z
           M 252.00,109.65
           C 244.97,112.68 244.09,116.84 244.00,124.00
             244.00,124.00 244.00,160.00 244.00,160.00
             244.00,160.00 244.00,316.00 244.00,316.00
             244.01,320.41 243.79,324.17 246.65,327.89
             251.40,334.08 260.61,334.23 265.30,327.89
             268.12,324.09 267.99,319.49 268.00,315.00
             268.00,315.00 268.00,155.00 268.00,155.00
             268.00,155.00 267.44,118.00 267.44,118.00
             265.38,110.15 259.31,108.16 252.00,109.65 Z
           M 206.00,217.00
           C 206.00,217.00 128.00,265.58 128.00,265.58
             128.00,265.58 107.00,278.58 107.00,278.58
             104.71,280.00 98.32,283.62 96.99,285.61
             94.98,288.63 97.63,301.79 98.00,306.00
             98.00,306.00 104.99,367.00 104.99,367.00
             105.22,377.46 102.41,379.23 97.78,388.00
             97.78,388.00 85.75,412.00 85.75,412.00
             83.09,417.29 80.12,421.11 79.00,427.00
             79.00,427.00 99.00,437.00 99.00,437.00
             99.00,437.00 120.25,395.00 120.25,395.00
             123.03,389.43 128.75,379.95 128.94,374.00
             128.94,374.00 127.16,358.00 127.16,358.00
             127.16,358.00 122.84,320.00 122.84,320.00
             122.30,315.04 119.86,302.07 122.02,298.09
             124.08,294.31 136.76,287.37 141.00,284.80
             141.00,284.80 191.00,253.81 191.00,253.81
             205.45,244.86 206.98,246.11 207.00,236.00
             207.01,230.92 207.75,221.41 206.00,217.00 Z
           M 305.00,217.00
           C 305.00,217.00 305.00,236.00 305.00,236.00
             305.00,237.88 304.88,241.11 305.60,242.79
             307.01,246.07 321.22,253.94 325.00,256.32
             325.00,256.32 371.00,284.80 371.00,284.80
             375.24,287.37 387.92,294.31 389.98,298.09
             392.22,302.20 389.70,314.01 389.16,319.00
             389.16,319.00 384.85,357.00 384.85,357.00
             384.85,357.00 383.06,375.00 383.06,375.00
             383.37,380.12 389.25,389.99 391.75,395.00
             391.75,395.00 413.00,437.00 413.00,437.00
             413.00,437.00 433.00,427.00 433.00,427.00
             433.00,427.00 415.14,390.00 415.14,390.00
             415.14,390.00 406.56,372.00 406.56,372.00
             406.56,372.00 408.85,350.00 408.85,350.00
             408.85,350.00 413.42,310.00 413.42,310.00
             413.42,310.00 415.15,294.00 415.15,294.00
             415.15,294.00 415.15,285.61 415.15,285.61
             415.15,285.61 405.00,278.58 405.00,278.58
             405.00,278.58 384.00,265.58 384.00,265.58
             384.00,265.58 337.00,236.58 337.00,236.58
             337.00,236.58 305.00,217.00 305.00,217.00 Z
           M 206.00,264.00
           C 206.00,264.00 169.20,310.00 169.20,310.00
             166.08,313.90 155.48,325.97 154.68,330.00
             154.09,332.96 157.97,350.82 158.80,355.00
             158.80,355.00 168.40,406.00 168.40,406.00
             168.40,406.00 172.75,432.00 172.75,432.00
             172.28,436.22 167.52,443.06 165.28,447.00
             165.28,447.00 147.15,478.00 147.15,478.00
             145.31,481.21 138.08,491.62 138.82,494.79
             139.33,496.99 142.23,498.50 144.00,499.60
             144.00,499.60 157.00,507.00 157.00,507.00
             157.00,507.00 185.60,458.00 185.60,458.00
             188.63,452.90 196.52,441.44 196.86,436.00
             197.10,432.14 194.07,418.72 193.25,414.00
             193.25,414.00 183.60,363.00 183.60,363.00
             182.76,358.79 178.82,339.87 179.34,337.00
             180.00,333.36 184.07,328.91 186.40,326.00
             186.40,326.00 204.66,303.00 204.66,303.00
             208.54,297.10 207.04,278.68 207.00,271.00
             206.98,268.07 207.09,266.76 206.00,264.00 Z
           M 305.00,264.00
           C 305.00,264.00 305.00,288.00 305.00,288.00
             305.00,291.82 304.55,297.61 306.16,301.00
             306.16,301.00 325.60,326.00 325.60,326.00
             327.90,328.88 332.04,333.38 332.61,337.00
             333.11,340.17 329.80,354.75 329.08,359.00
             329.08,359.00 319.60,409.00 319.60,409.00
             319.60,409.00 315.12,436.00 315.12,436.00
             315.56,441.44 322.79,451.87 325.72,457.00
             325.72,457.00 355.00,507.00 355.00,507.00
             358.29,505.26 371.57,498.36 372.85,495.62
             374.44,492.21 366.76,481.27 364.80,478.00
             364.80,478.00 347.20,448.00 347.20,448.00
             344.94,444.22 339.70,436.06 339.25,432.00
             338.88,428.70 342.36,412.36 343.20,408.00
             343.20,408.00 352.80,357.00 352.80,357.00
             352.80,357.00 357.44,331.00 357.44,331.00
             357.08,326.27 347.66,316.07 344.40,312.00
             344.40,312.00 319.60,281.00 319.60,281.00
             315.40,275.75 310.00,268.14 305.00,264.00 Z" />
</svg>
