<?xml version="1.0" encoding="UTF-8" standalone="no"?>
<!DOCTYPE svg PUBLIC "-//W3C//DTD SVG 20010904//EN"
              "http://www.w3.org/TR/2001/REC-SVG-20010904/DTD/svg10.dtd">

<svg xmlns="http://www.w3.org/2000/svg"
     width="135.45mm" height="135.45mm"
     viewBox="0 0 512 512">
  <path id="Selection"
        fill="none" stroke="black" stroke-width="1"
        d="M 140.00,0.00
           C 140.00,0.00 140.00,89.00 140.00,89.00
             140.00,89.00 140.60,95.96 140.60,95.96
             140.60,95.96 156.00,110.73 156.00,110.73
             156.00,110.73 199.00,148.00 199.00,148.00
             199.00,148.00 126.00,148.00 126.00,148.00
             126.00,148.00 78.00,148.00 78.00,148.00
             63.78,148.02 48.94,151.76 39.32,163.01
             33.48,169.85 30.11,178.00 30.00,187.00
             29.97,190.29 29.85,194.86 30.52,198.00
             34.79,218.01 53.38,229.98 73.00,230.00
             86.02,230.02 102.03,225.29 115.00,222.42
             115.00,222.42 180.00,208.12 180.00,208.12
             180.00,208.12 201.00,203.42 201.00,203.42
             203.41,202.89 208.47,202.25 210.01,200.28
             211.26,198.67 211.00,194.99 211.00,193.00
             211.00,193.00 211.00,123.00 211.00,123.00
             210.98,113.12 208.48,113.31 201.00,106.87
             201.00,106.87 184.00,92.27 184.00,92.27
             175.93,85.36 172.02,84.86 172.00,74.00
             172.00,74.00 172.00,0.00 172.00,0.00
             172.00,0.00 140.00,0.00 140.00,0.00 Z
           M 340.00,0.00
           C 340.00,0.00 340.00,74.00 340.00,74.00
             339.98,84.86 336.07,85.36 328.00,92.27
             328.00,92.27 311.00,106.87 311.00,106.87
             303.52,113.31 301.02,113.12 301.00,123.00
             301.00,123.00 301.00,193.00 301.00,193.00
             301.00,194.97 300.74,198.69 301.99,200.27
             303.34,201.96 307.87,202.61 310.00,203.13
             310.00,203.13 333.00,208.21 333.00,208.21
             333.00,208.21 398.00,222.65 398.00,222.65
             411.59,225.73 426.07,230.06 440.00,230.00
             460.97,229.90 481.73,214.01 482.00,192.00
             482.13,180.55 480.89,173.31 473.48,164.00
             464.59,152.83 449.84,148.17 436.00,148.00
             436.00,148.00 386.00,148.00 386.00,148.00
             386.00,148.00 313.00,148.00 313.00,148.00
             313.00,148.00 356.00,110.73 356.00,110.73
             356.00,110.73 371.40,95.96 371.40,95.96
             371.40,95.96 372.00,89.00 372.00,89.00
             372.00,89.00 372.00,0.00 372.00,0.00
             372.00,0.00 340.00,0.00 340.00,0.00 Z
           M 240.00,78.00
           C 240.00,78.00 256.00,75.18 256.00,75.18
             256.00,75.18 272.00,78.00 272.00,78.00
             272.00,70.86 272.81,62.11 268.35,56.04
             261.79,47.13 247.50,48.26 242.14,58.00
             239.31,63.13 240.00,72.13 240.00,78.00 Z
           M 250.00,105.65
           C 240.85,109.50 240.01,115.02 240.00,124.00
             240.00,124.00 240.00,158.00 240.00,158.00
             240.00,158.00 240.00,318.00 240.00,318.00
             240.01,322.68 239.78,325.94 242.65,329.98
             249.17,339.19 262.88,339.39 269.30,329.98
             272.13,325.84 271.99,321.76 272.00,317.00
             272.00,317.00 272.00,152.00 272.00,152.00
             272.00,152.00 271.44,116.00 271.44,116.00
             269.55,108.78 264.22,105.19 257.00,105.02
             253.97,104.94 252.94,105.04 250.00,105.65 Z
           M 91.00,283.00
           C 91.00,283.00 98.15,344.00 98.15,344.00
             98.15,344.00 100.61,372.00 100.61,372.00
             100.61,372.00 93.78,386.00 93.78,386.00
             93.78,386.00 80.74,412.00 80.74,412.00
             80.74,412.00 73.00,429.00 73.00,429.00
             73.00,429.00 91.00,438.00 91.00,438.00
             93.18,439.23 97.23,441.84 99.79,441.19
             102.25,440.57 103.70,437.07 104.75,435.00
             104.75,435.00 113.26,418.00 113.26,418.00
             113.26,418.00 127.25,391.00 127.25,391.00
             128.69,388.11 132.68,380.72 133.20,378.00
             133.70,375.32 132.67,367.98 132.28,365.00
             132.28,365.00 129.72,343.00 129.72,343.00
             129.72,343.00 126.05,312.00 126.05,312.00
             125.79,308.90 124.52,302.87 126.05,300.33
             127.78,297.37 141.30,289.87 145.00,287.58
             145.00,287.58 191.00,259.05 191.00,259.05
             194.70,256.73 209.04,248.81 210.43,245.67
             211.14,244.07 211.00,240.81 211.00,239.00
             211.00,239.00 211.00,210.00 211.00,210.00
             211.00,210.00 177.00,230.00 177.00,230.00
             177.00,230.00 123.00,263.42 123.00,263.42
             123.00,263.42 91.00,283.00 91.00,283.00 Z
           M 301.00,210.00
           C 301.00,210.00 301.00,239.00 301.00,239.00
             301.00,240.81 300.86,244.07 301.57,245.67
             302.96,248.81 317.30,256.73 321.00,259.05
             321.00,259.05 367.00,287.58 367.00,287.58
             370.70,289.87 384.22,297.37 385.85,300.33
             387.50,302.91 386.13,309.87 385.85,313.00
             385.85,313.00 382.16,343.00 382.16,343.00
             382.16,343.00 379.72,365.00 379.72,365.00
             379.37,367.77 378.10,375.71 378.50,378.00
             378.92,380.38 383.35,388.20 384.75,391.00
             384.75,391.00 399.14,419.00 399.14,419.00
             399.14,419.00 407.25,435.00 407.25,435.00
             408.30,437.07 409.75,440.57 412.21,441.19
             414.77,441.84 418.82,439.23 421.00,438.00
             421.00,438.00 439.00,429.00 439.00,429.00
             439.00,429.00 432.25,414.00 432.25,414.00
             432.25,414.00 419.69,389.00 419.69,389.00
             419.69,389.00 411.23,372.28 411.23,372.28
             411.23,372.28 413.84,344.00 413.84,344.00
             413.84,344.00 421.00,283.00 421.00,283.00
             421.00,283.00 389.00,263.42 389.00,263.42
             389.00,263.42 339.00,232.58 339.00,232.58
             339.00,232.58 301.00,210.00 301.00,210.00 Z
           M 132.00,498.00
           C 132.00,498.00 150.00,508.28 150.00,508.28
             152.00,509.40 155.45,511.73 157.79,511.18
             161.06,510.42 167.82,497.33 169.72,494.00
             169.72,494.00 193.20,454.00 193.20,454.00
             196.24,448.93 202.11,440.94 201.52,435.00
             201.52,435.00 197.61,414.00 197.61,414.00
             197.61,414.00 183.86,341.00 183.86,341.00
             183.24,335.24 187.83,331.22 191.20,327.00
             194.70,322.62 208.87,305.77 210.27,302.00
             211.07,299.83 210.99,297.29 211.00,295.00
             211.00,295.00 211.00,253.00 211.00,253.00
             204.45,256.37 192.12,274.35 186.80,281.00
             186.80,281.00 162.00,312.00 162.00,312.00
             159.15,315.56 151.63,324.12 150.51,328.00
             149.27,332.35 153.51,350.56 154.60,356.00
             154.60,356.00 163.80,405.00 163.80,405.00
             163.80,405.00 168.32,431.00 168.32,431.00
             167.98,434.65 161.20,445.24 158.99,449.00
             158.99,449.00 141.40,479.00 141.40,479.00
             137.80,485.06 133.32,490.96 132.00,498.00 Z
           M 301.00,253.00
           C 301.00,253.00 301.00,296.00 301.00,296.00
             301.03,298.03 301.02,300.06 301.73,302.00
             303.13,305.77 317.30,322.62 320.80,327.00
             323.07,329.84 327.38,334.50 328.01,338.00
             328.51,340.75 324.62,359.87 323.80,364.00
             323.80,364.00 313.92,416.00 313.92,416.00
             313.92,416.00 310.38,437.00 310.38,437.00
             310.64,441.44 317.49,451.74 319.99,456.00
             319.99,456.00 342.80,495.00 342.80,495.00
             344.77,498.28 350.90,510.43 354.18,511.18
             356.56,511.72 359.98,509.42 362.00,508.28
             362.00,508.28 380.00,498.00 380.00,498.00
             378.73,491.31 373.54,483.91 370.00,478.00
             370.00,478.00 352.40,448.00 352.40,448.00
             350.48,444.80 344.43,435.07 343.81,432.00
             343.13,428.57 346.56,413.40 347.39,409.00
             347.39,409.00 357.60,355.00 357.60,355.00
             358.51,350.47 362.31,332.32 361.71,329.00
             360.81,324.05 348.92,310.64 345.20,306.00
             345.20,306.00 303.00,253.00 303.00,253.00
             303.00,253.00 301.00,253.00 301.00,253.00 Z" />
</svg>
