<?xml version="1.0" encoding="UTF-8" standalone="no"?>
<!DOCTYPE svg PUBLIC "-//W3C//DTD SVG 20010904//EN"
              "http://www.w3.org/TR/2001/REC-SVG-20010904/DTD/svg10.dtd">

<svg xmlns="http://www.w3.org/2000/svg"
     width="135.45mm" height="135.45mm"
     viewBox="0 0 512 512">
  <path id="Selection"
        fill="none" stroke="black" stroke-width="1"
        d="M 86.00,0.00
           C 86.00,0.00 138.00,0.00 138.00,0.00
             155.04,0.00 163.55,-1.56 180.00,4.81
             188.64,8.16 204.30,16.82 207.00,26.00
             207.00,26.00 188.00,33.26 188.00,33.26
             188.00,33.26 178.00,37.48 178.00,37.48
             178.00,37.48 164.00,32.52 164.00,32.52
             164.00,32.52 143.00,30.00 143.00,30.00
             143.00,30.00 86.00,30.00 86.00,30.00
             86.00,30.00 86.00,0.00 86.00,0.00 Z
           M 305.00,26.00
           C 307.70,16.82 323.36,8.16 332.00,4.81
             348.45,-1.56 356.96,0.00 374.00,0.00
             374.00,0.00 426.00,0.00 426.00,0.00
             426.00,0.00 426.00,30.00 426.00,30.00
             426.00,30.00 369.00,30.00 369.00,30.00
             369.00,30.00 348.00,32.52 348.00,32.52
             348.00,32.52 334.00,37.94 334.00,37.94
             334.00,37.94 325.00,34.03 325.00,34.03
             325.00,34.03 305.00,26.00 305.00,26.00 Z
           M 149.00,101.00
           C 162.82,85.38 168.50,77.54 187.00,66.06
             226.55,41.52 275.85,40.85 317.00,61.76
             328.58,67.64 340.97,76.65 349.96,86.00
             354.18,90.39 358.76,95.29 361.00,101.00
             361.00,101.00 219.00,101.00 219.00,101.00
             219.00,101.00 172.00,101.00 172.00,101.00
             172.00,101.00 149.00,101.00 149.00,101.00 Z
           M 133.00,130.00
           C 133.00,130.00 160.00,130.00 160.00,130.00
             160.00,130.00 214.00,130.00 214.00,130.00
             214.00,130.00 379.00,130.00 379.00,130.00
             379.00,130.00 382.58,146.00 382.58,146.00
             382.58,146.00 386.00,168.00 386.00,168.00
             386.00,168.00 126.00,168.00 126.00,168.00
             126.00,168.00 129.87,144.00 129.87,144.00
             129.87,144.00 133.00,130.00 133.00,130.00 Z
           M 127.00,197.00
           C 127.00,197.00 384.00,197.00 384.00,197.00
             384.00,197.00 382.98,223.00 382.98,223.00
             382.98,223.00 382.98,236.00 382.98,236.00
             382.98,236.00 382.00,237.00 382.00,237.00
             382.00,237.00 350.00,236.00 350.00,236.00
             350.00,236.00 290.00,236.00 290.00,236.00
             290.00,236.00 183.00,236.00 183.00,236.00
             183.00,236.00 150.00,236.00 150.00,236.00
             150.00,236.00 130.00,237.00 130.00,237.00
             130.00,237.00 129.02,236.00 129.02,236.00
             129.02,236.00 129.02,224.00 129.02,224.00
             129.02,224.00 127.00,197.00 127.00,197.00 Z
           M 132.00,265.00
           C 132.00,265.00 299.00,265.00 299.00,265.00
             299.00,265.00 351.00,265.00 351.00,265.00
             351.00,265.00 380.00,264.00 380.00,264.00
             380.00,264.00 381.00,265.00 381.00,265.00
             378.80,271.80 378.18,285.49 377.99,293.00
             377.86,298.03 376.55,299.37 379.00,304.00
             379.00,304.00 360.00,304.00 360.00,304.00
             360.00,304.00 320.00,304.00 320.00,304.00
             320.00,304.00 197.00,304.00 197.00,304.00
             197.00,304.00 158.00,304.00 158.00,304.00
             158.00,304.00 135.00,305.00 135.00,305.00
             135.00,305.00 134.00,304.00 134.00,304.00
             134.00,304.00 132.00,265.00 132.00,265.00 Z
           M 137.00,333.00
           C 137.00,333.00 375.00,333.00 375.00,333.00
             375.00,333.00 373.00,373.00 373.00,373.00
             373.00,373.00 343.00,372.00 343.00,372.00
             343.00,372.00 294.00,372.00 294.00,372.00
             294.00,372.00 141.00,372.00 141.00,372.00
             141.00,372.00 140.00,375.00 140.00,375.00
             140.00,375.00 137.00,333.00 137.00,333.00 Z
           M 147.00,401.00
           C 157.85,402.94 190.93,402.00 204.00,402.00
             204.00,402.00 312.00,402.00 312.00,402.00
             312.00,402.00 365.00,402.00 365.00,402.00
             359.60,412.22 356.26,419.59 349.10,429.00
             336.41,445.68 310.17,465.73 289.00,469.00
             289.00,469.00 303.00,483.00 303.00,483.00
             304.58,484.59 308.13,487.88 308.66,490.00
             309.28,492.48 307.45,494.31 305.94,496.00
             305.94,496.00 294.00,507.94 294.00,507.94
             292.00,509.76 289.92,511.84 287.00,510.83
             284.56,509.99 279.06,504.06 277.00,502.00
             277.00,502.00 256.00,481.00 256.00,481.00
             251.61,487.14 238.96,499.08 233.00,505.00
             230.59,507.39 226.82,512.15 223.00,510.83
             220.91,510.11 217.63,506.62 216.00,505.00
             211.19,500.23 205.94,495.50 202.00,490.00
             202.00,490.00 223.00,469.00 223.00,469.00
             214.51,467.69 207.55,464.08 200.00,460.24
             177.21,448.66 155.72,425.16 147.00,401.00 Z" />
</svg>
